<svg width="18" height="18" viewBox="0 0 18 18" fill="none" xmlns="http://www.w3.org/2000/svg">
<circle cx="9.00056" cy="8.99958" r="6.85714" fill="#5E5E5E" stroke="#C6C6C6" stroke-width="0.857143"/>
<path d="M9 15.8567C8.73695 15.8567 8.44626 15.7291 8.13935 15.4138C7.83111 15.0972 7.53379 14.6167 7.27497 13.9882C6.75817 12.7331 6.42857 10.9696 6.42857 8.99958C6.42857 7.02957 6.75817 5.26607 7.27497 4.01098C7.53379 3.38243 7.83111 2.90199 8.13935 2.58537C8.44627 2.2701 8.73695 2.14244 9 2.14244C9.26305 2.14244 9.55373 2.2701 9.86065 2.58537C10.1689 2.90199 10.4662 3.38243 10.725 4.01098C11.2418 5.26607 11.5714 7.02957 11.5714 8.99958C11.5714 10.9696 11.2418 12.7331 10.725 13.9882C10.4662 14.6167 10.1689 15.0972 9.86065 15.4138C9.55373 15.7291 9.26305 15.8567 9 15.8567Z" stroke="#C6C6C6" stroke-width="0.857143"/>
<rect x="2.14258" y="8.57129" width="13.7143" height="0.857143" fill="#C6C6C6"/>
</svg>
