<svg width="18" height="18" viewBox="0 0 18 18" fill="none" xmlns="http://www.w3.org/2000/svg">
<path d="M6.75 3.65625V3.65625C6.75 2.72427 7.50552 1.96875 8.4375 1.96875L14.625 1.96875C15.557 1.96875 16.3125 2.72427 16.3125 3.65625V3.65625V3.65625C16.3125 4.58823 15.557 5.34375 14.625 5.34375L8.4375 5.34375C7.50552 5.34375 6.75 4.58823 6.75 3.65625V3.65625Z" fill="#D8D8D8"/>
<path d="M10.7379 11.2453C9.64763 12.3002 7.92585 12.3718 6.74983 11.46V14.3442L3.375 15.4692L2.8125 16.5942H15.1875L14.625 15.4692L11.25 14.3442L11.2498 10.75L10.7379 11.2453Z" fill="#C6C6C6"/>
<path fill-rule="evenodd" clip-rule="evenodd" d="M9.56419 6.4707L7.53346 8.4289C6.86385 9.07461 6.86385 10.1215 7.53346 10.7672C8.20308 11.4129 9.28875 11.4129 9.95837 10.7672L14.404 6.48032C14.4073 6.47712 14.4106 6.47392 14.4139 6.4707H9.56419Z" fill="#C6C6C6"/>
<path fill-rule="evenodd" clip-rule="evenodd" d="M3.99002 5.90625C5.39627 5.90625 6.24002 4.89889 6.24002 3.65625C6.24002 2.41361 5.39627 1.40625 3.99002 1.40625C3.07366 1.40625 2.1323 1.91709 1.70113 2.71094H3.46599C3.6648 2.57727 3.87677 2.53125 3.98807 2.53125C4.56393 2.53125 4.97244 2.86875 4.97244 3.65625C4.97244 4.44375 4.56485 4.78125 3.98807 4.78125C3.87058 4.78125 3.64091 4.72997 3.43296 4.57844H1.6875C2.1122 5.38757 3.06388 5.90625 3.99002 5.90625Z" fill="#D8D8D8"/>
</svg>
