<svg width="18" height="18" viewBox="0 0 18 18" fill="none" xmlns="http://www.w3.org/2000/svg">
<path fill-rule="evenodd" clip-rule="evenodd" d="M15.0192 7.10858L15.2179 7.12484L15.3869 7.20193L15.5382 7.29384L15.6952 7.41971L15.8168 7.57244L15.9243 7.73933L15.9858 7.89276L16.0021 8.09146L16.012 9.99924L15.983 10.2135L15.9356 10.3811L15.8444 10.5359L15.7228 10.6887L15.5658 10.8145L15.4123 10.9043L15.2292 10.9673L15.0298 10.9814L10.877 10.9453L10.9074 15.1038L10.9088 15.2877L10.8458 15.4708L10.7405 15.6398L10.6146 15.7968L10.4774 15.9029L10.3084 16.0082L10.1253 16.0712L9.94146 16.0697L8.01389 16.0712L7.83074 16.0393L7.66175 15.9934L7.48497 15.8972L7.33223 15.7756L7.20637 15.6186L7.13071 15.451L7.06919 15.2665L7.03737 15.0833L7.00838 10.8951L2.83292 10.8789L2.65189 10.8492L2.46734 10.7877L2.30258 10.7148L2.14985 10.5932L2.02823 10.4405L1.95115 10.2715L1.90519 10.1025L1.85923 9.90519L1.85923 7.9762L1.85923 7.79377L1.92074 7.60922L2.02822 7.44234L2.1343 7.30515L2.29127 7.17929L2.45815 7.07181L2.6427 7.01029L2.82514 7.0103L6.99919 7.05625L6.95181 2.88362L6.96737 2.68563L7.02888 2.50108L7.12082 2.34975L7.24668 2.19277L7.39941 2.07115L7.55215 1.97782L7.72115 1.93185L7.93399 1.90144L9.84741 1.917L10.0603 1.94741L10.2137 2.00893L10.3664 2.10226L10.5192 2.22389L10.6408 2.37662L10.7341 2.52936L10.8112 2.69836L10.8253 2.89493L10.831 7.081L15.0192 7.10858Z" fill="#6ACB8A" stroke="#304938"/>
</svg>
