<svg width="36" height="37" viewBox="0 0 36 37" fill="none" xmlns="http://www.w3.org/2000/svg">
<rect y="0.300781" width="36" height="36" rx="18" fill="#9E9E9E"/>
<path d="M8.44313 24.3008L12.9391 13.1008H14.0911L18.6031 24.3008H17.1791L16.1071 21.5328H10.8751L9.80313 24.3008H8.44313ZM11.3071 20.4128H15.6591L13.4831 14.7968L11.3071 20.4128ZM23.8358 24.4928C21.6598 24.4928 20.2358 23.6874 19.5638 22.0768L20.6998 21.4848C20.9558 22.1034 21.3344 22.5674 21.8358 22.8768C22.3478 23.1861 23.0091 23.3408 23.8198 23.3408H23.9958C24.8811 23.3408 25.5584 23.1754 26.0278 22.8448C26.5078 22.5034 26.7478 22.0288 26.7478 21.4208V21.2448C26.7478 20.7221 26.5984 20.3008 26.2998 19.9808C26.0011 19.6608 25.5158 19.4421 24.8438 19.3248L22.7958 18.9888C20.8651 18.6688 19.8997 17.6981 19.8997 16.0768V15.8688C19.8997 15.2821 20.0598 14.7648 20.3798 14.3168C20.7104 13.8688 21.1638 13.5221 21.7398 13.2768C22.3158 13.0208 22.9824 12.8928 23.7398 12.8928H23.9638C24.9238 12.8928 25.7398 13.0901 26.4118 13.4848C27.0944 13.8794 27.5851 14.4448 27.8837 15.1808L26.7158 15.6768C26.3104 14.5994 25.3878 14.0608 23.9478 14.0608H23.7558C22.9664 14.0608 22.3424 14.2261 21.8838 14.5568C21.4358 14.8768 21.2118 15.3141 21.2118 15.8688V16.0608C21.2118 16.5514 21.3611 16.9354 21.6598 17.2128C21.9584 17.4794 22.4331 17.6714 23.0838 17.7888L25.1318 18.1248C26.1131 18.2848 26.8491 18.6314 27.3398 19.1648C27.8304 19.6874 28.0758 20.3754 28.0758 21.2288V21.4208C28.0758 22.3701 27.7131 23.1221 26.9878 23.6768C26.2731 24.2208 25.2918 24.4928 24.0438 24.4928H23.8358Z" fill="#272727"/>
</svg>
