<svg xmlns="http://www.w3.org/2000/svg" width="27" height="27" viewBox="0 0 27 27">
  <g id="Arrow_down" transform="translate(-6479 -552)">
    <path id="Arrow_down-2" data-name="Arrow_down" d="M9.824,2.626,4.692,7.678,9.824,12.75l.063.08.063.1.041.122v.225l-.041.122-.063.1-.063.08L8.211,15.173l-.106.082-.084.04-.125.042-.125.019-.106-.019-.125-.042-.1-.04-.106-.082L.188,8.106.125,8,.063,7.921.019,7.8,0,7.678l.019-.1.043-.124.063-.1.063-.1L7.33.183,7.436.1,7.54.04,7.665,0H7.9l.125.04L8.105.1l.106.082L9.824,1.751l.063.1.063.124.041.1v.246l-.041.1-.063.1Z" transform="translate(6485.05 570.801) rotate(-90)" fill="#9e9e9e" fill-rule="evenodd"/>
    <rect id="Rectangle_1007" data-name="Rectangle 1007" width="27" height="27" transform="translate(6479 552)" fill="none"/>
  </g>
</svg>
