<svg width="19" height="19" viewBox="0 0 19 19" fill="none" xmlns="http://www.w3.org/2000/svg">
<path fill-rule="evenodd" clip-rule="evenodd" d="M18.3689 10.1093L18.3489 10.2643L18.2909 10.4013L18.1909 10.5583L18.0909 10.7333L15.0709 14.3333L14.8559 14.5463L14.6029 14.7413L14.3119 14.9363L13.9809 15.1133L13.6499 15.2503L13.3189 15.3663L13.0079 15.4243H2.64991L2.51291 15.3863L2.39491 15.3263L2.29491 15.2503L2.21691 15.1503L2.15891 15.0503V14.7773L2.21691 14.6403L2.31691 14.4653L2.43291 14.3283L5.45291 10.7283L5.66591 10.4953L5.90091 10.3003L6.19191 10.0853L6.52291 9.92833L6.85391 9.77333L7.18491 9.69533L7.49591 9.61733L7.82691 9.59733H17.5669L17.7219 9.61733L17.8589 9.63733L17.9959 9.67533L18.1329 9.73333L18.2109 9.79133L18.2889 9.86933L18.3469 9.98533L18.3689 10.1093ZM15.2689 6.99133V8.43333H7.82991L7.40191 8.47333L7.16691 8.49133L6.95391 8.54933L6.74491 8.60933L6.50991 8.68733L6.27691 8.76533L6.06191 8.88133L5.84891 8.99933L5.61391 9.09933L5.41891 9.23633L5.22391 9.37333L4.87491 9.66433L4.58191 9.97733L1.56191 13.5773L1.50391 13.6353V4.43733L1.54391 4.24233L1.58191 4.06733L1.65991 3.87233L1.73791 3.69733L1.83791 3.52033L1.94491 3.36733L2.10191 3.21033L2.23891 3.05533L2.41391 2.95533L2.57091 2.83933L2.74591 2.73933L2.92091 2.70933L3.11591 2.65133L3.31091 2.63133L3.50591 2.61133H6.38891L6.58391 2.63133L6.77891 2.65133L6.97391 2.70933L7.15091 2.74733L7.32591 2.84733L7.50091 2.96333L7.63791 3.06333L7.81291 3.21833L7.93091 3.37533L8.06791 3.53033L8.16791 3.70733L8.24591 3.88233L8.32391 4.07733L8.36191 4.25233L8.39991 4.44733V4.95533H13.2709L13.4859 4.97333L13.6809 4.99333L13.8559 5.05133L14.0509 5.09133L14.2059 5.19133L14.3829 5.29133L14.5379 5.40733L14.6949 5.56233L14.8519 5.71933L14.9519 5.87633L15.0679 6.05133L15.1459 6.22633L15.2039 6.42133L15.2439 6.59833L15.2819 6.79333L15.2689 6.99133Z" fill="#A8A8A8"/>
</svg>
