<svg width="26" height="63" viewBox="0 0 26 63" fill="none" xmlns="http://www.w3.org/2000/svg">
<rect y="0.699219" width="26" height="62" rx="2" fill="#1F2124"/>
<path d="M16.2394 38.2959L20.1953 36.1382C20.5427 35.9487 20.5427 35.4498 20.1953 35.2603L16.2394 33.1025C15.9062 32.9208 15.5 33.162 15.5 33.5415L15.5 34.1992C15.5 34.4754 15.2761 34.6992 15 34.6992L14.75 34.6992C14.5926 34.6992 14.4444 34.6251 14.35 34.4992L8.65 26.8992C8.55557 26.7733 8.40738 26.6992 8.25 26.6992L6.5 26.6992C6.22386 26.6992 6 26.9231 6 27.1992L6 28.1992C6 28.4754 6.22386 28.6992 6.5 28.6992L7.25 28.6992C7.40738 28.6992 7.55557 28.7733 7.65 28.8992L13.35 36.4992C13.4444 36.6251 13.5926 36.6992 13.75 36.6992L15 36.6992C15.2761 36.6992 15.5 36.9231 15.5 37.1992L15.5 37.8569C15.5 38.2365 15.9062 38.4776 16.2394 38.2959Z" fill="#A8A8A8"/>
<path d="M16.2394 25.1025L20.1953 27.2603C20.5427 27.4498 20.5427 27.9487 20.1953 28.1382L16.2394 30.2959C15.9062 30.4776 15.5 30.2365 15.5 29.8569L15.5 29.1992C15.5 28.9231 15.2761 28.6992 15 28.6992L14.75 28.6992C14.5926 28.6992 14.4444 28.7733 14.35 28.8992L8.65 36.4992C8.55557 36.6251 8.40738 36.6992 8.25 36.6992L6.5 36.6992C6.22386 36.6992 6 36.4754 6 36.1992L6 35.1992C6 34.9231 6.22386 34.6992 6.5 34.6992L7.25 34.6992C7.40738 34.6992 7.55557 34.6251 7.65 34.4992L13.35 26.8992C13.4444 26.7733 13.5926 26.6992 13.75 26.6992L15 26.6992C15.2761 26.6992 15.5 26.4754 15.5 26.1992L15.5 25.5415C15.5 25.162 15.9062 24.9208 16.2394 25.1025Z" fill="#A8A8A8"/>
</svg>
