<svg width="36" height="37" viewBox="0 0 36 37" fill="none" xmlns="http://www.w3.org/2000/svg">
<rect y="0.300781" width="36" height="36" rx="18" fill="#9E9E9E"/>
<path fill-rule="evenodd" clip-rule="evenodd" d="M28.7838 20.8771V20.9705L28.54 21.9205L28.2312 22.7802L27.8322 23.6447L27.3683 24.4459L26.8759 25.2217L26.3201 25.9295L25.6773 26.6056L24.9965 27.2215L24.2554 27.8026L23.4796 28.2633L22.68 28.6956L21.8488 29.0043L20.9843 29.2814L20.0929 29.4746L19.1682 29.5696L18.2182 29.6297L17.6941 29.5981L17.1716 29.5696L16.6475 29.5062L16.1551 29.4461L15.6627 29.3226L15.1671 29.1642L14.6747 29.0059L14.1823 28.8127L13.7184 28.5974L13.2576 28.3821L12.8254 28.1335L12.3931 27.8564L11.9324 27.5476L11.5334 27.2389L11.1344 26.9001L10.7623 26.5628L8.91454 28.409L8.75619 28.5293L8.63269 28.6243L8.43955 28.6528L8.24637 28.6845L8.08803 28.6528L7.8949 28.6243L7.73655 28.5293L7.61305 28.409L7.48955 28.2855L7.39614 28.0923L7.33594 27.8991V21.1225L7.39614 20.9641L7.48955 20.8058L7.61305 20.6475L7.73655 20.524L7.8949 20.4638L8.08803 20.4005H14.7697L14.9629 20.4638L15.0864 20.524L15.2447 20.6475L15.3682 20.8058L15.4616 20.9641L15.525 21.1225L15.5566 21.3156L15.525 21.531L15.4616 21.6893L15.3682 21.8476L15.2447 22.006L13.3067 23.9772L13.8292 24.4095L14.385 24.8085L15.0009 25.1473L15.5819 25.4244L16.2295 25.673L16.9056 25.7933L17.5865 25.9168L18.2341 25.9485L18.7264 25.9168L19.1856 25.8851L19.6495 25.7917L20.0818 25.7316L20.5093 25.5732L20.9415 25.4149L21.3738 25.2217L21.806 25.0064L22.2051 24.7277L22.574 24.4839L22.946 24.1751L23.2849 23.8981L23.5936 23.5592L23.9024 23.1871L24.1794 22.8182L24.4566 22.4192L24.4882 22.3559L24.5484 22.2356L24.6117 22.0772L24.7036 21.8841L24.7954 21.6355L24.9189 21.3584L25.0424 21.0496L25.1627 20.7108L25.2561 20.5525L25.3511 20.4591L25.4715 20.3957H28.3373L28.5305 20.4274L28.5906 20.4591L28.684 20.5192L28.7759 20.6776L28.7838 20.8771ZM29.1559 9.3583V15.9798L29.0926 16.1381L28.9991 16.2965L28.8788 16.4548L28.7553 16.5783L28.597 16.6717L28.4038 16.7319H21.719L21.5353 16.6717L21.377 16.5783L21.2535 16.4548L21.1299 16.2965L21.0381 16.1381L20.978 15.9798V15.6109L21.0381 15.4177L21.1299 15.2594L21.2535 15.1359L23.1914 13.1361L22.6706 12.6722L22.1148 12.2732L21.5337 11.9645L20.9273 11.6652L20.3114 11.4721L19.6305 11.2789L18.9545 11.1855L18.2467 11.1538L17.7828 11.1855L17.3189 11.214L16.8581 11.3074L16.4259 11.4008L15.9936 11.5243L15.5646 11.6826L15.1006 11.898L14.7016 12.0911L14.3296 12.3682L13.9305 12.6168L13.5616 12.9256L13.2228 13.2343L12.914 13.5731L12.6053 13.9104L12.3615 14.2825L12.0828 14.6815L12.0226 14.7416L11.9593 14.8651L11.8991 15.0583L11.839 15.2166L11.7155 15.4605L11.592 15.7391L11.4685 16.0479L11.345 16.3851L11.2532 16.5435L11.1613 16.6369L11.0378 16.7303H8.0817L7.88857 16.6986L7.82522 16.6701L7.73177 16.5767L7.63837 16.4184V16.1698L7.88697 15.2198L8.19573 14.3252L8.59471 13.4655L9.02697 12.6643L9.54945 11.9233L10.1305 11.1823L10.7465 10.5015L11.4273 9.92039L12.2031 9.3393L12.9441 8.87539L13.7754 8.41464L14.6066 8.10589L15.468 7.82722L16.3641 7.63405L17.2888 7.54064L18.2388 7.48047L18.7597 7.50897L19.2822 7.54064L19.7778 7.60397L20.3003 7.69739L20.8212 7.81772L21.3168 7.94122L21.8092 8.09955L22.3016 8.31489L22.7656 8.50805L23.2263 8.75188L23.6902 9.00047L24.1193 9.27755L24.5515 9.55622L24.9838 9.89347L25.3828 10.2022L25.7549 10.5411L27.6026 8.69489L27.7261 8.57139L27.9193 8.47797L28.0776 8.4178H28.4165L28.6096 8.47797L28.768 8.57139L28.8915 8.69489L29.0118 8.85322L29.1052 9.01155L29.1685 9.20472L29.1559 9.3583Z" fill="#272727"/>
<path d="M18.1409 23.9734L18.0516 23.9316L13.3801 21.7466L13.2578 21.6894V21.5544V16.0916V15.9586L13.3776 15.9006L18.0491 13.6401L18.1409 13.5957L18.233 13.6397L22.9622 15.9002L23.0828 15.9579V16.0916V21.5544V21.6901L22.9597 21.747L18.2305 23.9321L18.1409 23.9734Z" fill="#2D2D2D"/>
<path d="M18.1388 13.8302L13.4673 16.0907V21.5535L18.1388 23.7386L22.868 21.5535V16.0907L18.1388 13.8302ZM18.1377 13.3594L23.2923 15.8232V21.8249L18.1377 24.2065L13.043 21.8235V15.8246L18.1377 13.3594Z" fill="#2D2D2D"/>
<path d="M18.0461 23.7292L13.4727 21.5659V16.1719L18.0461 18.3352V23.7292Z" fill="#575757"/>
<path d="M13.5794 16.3409V21.5002L17.9407 23.5632V18.4039L13.5794 16.3409ZM13.3672 16.0059L18.1528 18.2696V23.8983L13.3672 21.6346V16.0059Z" fill="#2F2F2F"/>
<path d="M18.2578 23.7292V18.3352L22.8313 16.1719V21.5659L18.2578 23.7292Z" fill="#747474"/>
<path d="M22.7258 16.3409L18.3645 18.4039V23.5632L22.7258 21.5002V16.3409ZM22.938 16.0059V21.6346L18.1523 23.8983V18.2696L22.938 16.0059Z" fill="#2F2F2F"/>
<path d="M18.1513 18.1539L13.6133 16.0071L18.1512 13.8516L22.69 16.0071L18.1513 18.1539Z" fill="#717171"/>
<path d="M18.1528 13.9693L13.8625 16.0071L18.1528 18.0368L22.4439 16.0071L18.1528 13.9693ZM18.1528 13.7344L22.9392 16.0075L18.1528 18.2715L13.3672 16.0075L18.1528 13.7344Z" fill="#2F2F2F"/>
</svg>
