<svg width="478" height="83" viewBox="0 0 478 83" fill="none" xmlns="http://www.w3.org/2000/svg">
<path opacity="0.32" d="M238.505 82.5828C268.055 82.5828 292.01 78.3364 292.01 73.0982C292.01 67.8599 268.055 63.6135 238.505 63.6135C208.955 63.6135 185 67.8599 185 73.0982C185 78.3364 208.955 82.5828 238.505 82.5828Z" fill="url(#paint0_radial_1_142866)"/>
<g filter="url(#filter0_d_1_142866)">
<mask id="path-2-outside-1_1_142866" maskUnits="userSpaceOnUse" x="218" y="0.849854" width="13" height="14" fill="black">
<rect fill="white" x="218" y="0.849854" width="13" height="14"/>
<path d="M219.761 4.99067C219.355 4.71675 219.244 4.15995 219.574 3.79863C220.223 3.08954 221.037 2.54344 221.948 2.2117C223.139 1.77833 224.436 1.73303 225.654 2.08228C226.872 2.43154 227.948 3.15742 228.728 4.15588C229.508 5.15435 229.952 6.37415 229.996 7.64046C230.041 8.90676 229.683 10.1546 228.974 11.205C228.266 12.2555 227.243 13.0546 226.052 13.488C224.862 13.9214 223.564 13.9667 222.346 13.6174C221.414 13.3501 220.565 12.862 219.868 12.1999C219.513 11.8626 219.585 11.2993 219.971 10.9978C220.357 10.6962 220.91 10.7737 221.285 11.0884C221.736 11.4664 222.263 11.7483 222.835 11.9123C223.693 12.1583 224.607 12.1263 225.446 11.8211C226.284 11.5159 227.005 10.953 227.504 10.2131C228.003 9.47318 228.255 8.59429 228.224 7.70236C228.193 6.81044 227.88 5.95127 227.33 5.248C226.781 4.54472 226.023 4.03345 225.165 3.78745C224.307 3.54145 223.393 3.57336 222.555 3.87861C221.996 4.08207 221.489 4.40002 221.066 4.80856C220.713 5.14867 220.167 5.26459 219.761 4.99067Z"/>
</mask>
<path d="M219.761 4.99067C219.355 4.71675 219.244 4.15995 219.574 3.79863C220.223 3.08954 221.037 2.54344 221.948 2.2117C223.139 1.77833 224.436 1.73303 225.654 2.08228C226.872 2.43154 227.948 3.15742 228.728 4.15588C229.508 5.15435 229.952 6.37415 229.996 7.64046C230.041 8.90676 229.683 10.1546 228.974 11.205C228.266 12.2555 227.243 13.0546 226.052 13.488C224.862 13.9214 223.564 13.9667 222.346 13.6174C221.414 13.3501 220.565 12.862 219.868 12.1999C219.513 11.8626 219.585 11.2993 219.971 10.9978C220.357 10.6962 220.91 10.7737 221.285 11.0884C221.736 11.4664 222.263 11.7483 222.835 11.9123C223.693 12.1583 224.607 12.1263 225.446 11.8211C226.284 11.5159 227.005 10.953 227.504 10.2131C228.003 9.47318 228.255 8.59429 228.224 7.70236C228.193 6.81044 227.88 5.95127 227.33 5.248C226.781 4.54472 226.023 4.03345 225.165 3.78745C224.307 3.54145 223.393 3.57336 222.555 3.87861C221.996 4.08207 221.489 4.40002 221.066 4.80856C220.713 5.14867 220.167 5.26459 219.761 4.99067Z" fill="#E7E8E9"/>
<path d="M219.761 4.99067C219.355 4.71675 219.244 4.15995 219.574 3.79863C220.223 3.08954 221.037 2.54344 221.948 2.2117C223.139 1.77833 224.436 1.73303 225.654 2.08228C226.872 2.43154 227.948 3.15742 228.728 4.15588C229.508 5.15435 229.952 6.37415 229.996 7.64046C230.041 8.90676 229.683 10.1546 228.974 11.205C228.266 12.2555 227.243 13.0546 226.052 13.488C224.862 13.9214 223.564 13.9667 222.346 13.6174C221.414 13.3501 220.565 12.862 219.868 12.1999C219.513 11.8626 219.585 11.2993 219.971 10.9978C220.357 10.6962 220.91 10.7737 221.285 11.0884C221.736 11.4664 222.263 11.7483 222.835 11.9123C223.693 12.1583 224.607 12.1263 225.446 11.8211C226.284 11.5159 227.005 10.953 227.504 10.2131C228.003 9.47318 228.255 8.59429 228.224 7.70236C228.193 6.81044 227.88 5.95127 227.33 5.248C226.781 4.54472 226.023 4.03345 225.165 3.78745C224.307 3.54145 223.393 3.57336 222.555 3.87861C221.996 4.08207 221.489 4.40002 221.066 4.80856C220.713 5.14867 220.167 5.26459 219.761 4.99067Z" stroke="url(#paint1_linear_1_142866)" stroke-width="2" mask="url(#path-2-outside-1_1_142866)"/>
</g>
<g filter="url(#filter1_d_1_142866)">
<rect x="234" y="20.8499" width="10" height="13" rx="1" fill="#E8E9EA"/>
<rect x="234" y="20.8499" width="10" height="13" rx="1" fill="#A6A8AB"/>
<rect x="234" y="20.8499" width="10" height="13" rx="1" fill="url(#paint2_linear_1_142866)" fill-opacity="0.4"/>
<rect x="234.5" y="21.3499" width="9" height="12" rx="0.5" stroke="url(#paint3_linear_1_142866)"/>
</g>
<g filter="url(#filter2_d_1_142866)">
<rect x="259" y="9.62817" width="28" height="11" rx="5.5" transform="rotate(135 259 9.62817)" fill="#E7E8E9"/>
<rect x="259" y="9.62817" width="28" height="11" rx="5.5" transform="rotate(135 259 9.62817)" fill="url(#paint4_linear_1_142866)" fill-opacity="0.4" style="mix-blend-mode:multiply"/>
<rect x="258.293" y="9.62817" width="27" height="10" rx="5" transform="rotate(135 258.293 9.62817)" stroke="url(#paint5_linear_1_142866)"/>
</g>
<g filter="url(#filter3_d_1_142866)">
<rect x="230" y="2.62817" width="28" height="11" rx="5.5" fill="#E7E8E9"/>
<rect x="230" y="2.62817" width="28" height="11" rx="5.5" fill="url(#paint6_linear_1_142866)" fill-opacity="0.4" style="mix-blend-mode:multiply"/>
<rect x="230.5" y="3.12817" width="27" height="10" rx="5" stroke="url(#paint7_linear_1_142866)"/>
</g>
<g filter="url(#filter4_d_1_142866)">
<circle cx="252.5" cy="8.12817" r="3.5" fill="#E7E8E9"/>
<circle cx="252.5" cy="8.12817" r="3.5" fill="url(#paint8_radial_1_142866)" fill-opacity="0.5"/>
<circle cx="252.5" cy="8.12817" r="3" stroke="url(#paint9_linear_1_142866)"/>
</g>
<g filter="url(#filter5_d_1_142866)">
<circle cx="239.5" cy="21.1282" r="3.5" fill="#E7E8E9"/>
<circle cx="239.5" cy="21.1282" r="3.5" fill="url(#paint10_radial_1_142866)" fill-opacity="0.5"/>
<circle cx="239.5" cy="21.1282" r="3" stroke="url(#paint11_linear_1_142866)"/>
</g>
<g filter="url(#filter6_d_1_142866)">
<rect width="40" height="8" rx="1" transform="matrix(1 0 0 -1 219 40.8499)" fill="#E8E9EA"/>
<rect width="40" height="8" rx="1" transform="matrix(1 0 0 -1 219 40.8499)" fill="black" fill-opacity="0.2"/>
<rect x="0.5" y="-0.5" width="39" height="7" rx="0.5" transform="matrix(1 0 0 -1 219 39.8499)" stroke="url(#paint12_linear_1_142866)"/>
</g>
<path d="M238.049 43.7769C238.349 42.8556 239.652 42.8556 239.951 43.7769L241.637 48.965C241.771 49.377 242.155 49.656 242.588 49.656H248.043C249.012 49.656 249.415 50.8956 248.631 51.465L244.218 54.6715C243.867 54.9261 243.721 55.3775 243.854 55.7895L245.54 60.9776C245.84 61.8989 244.785 62.665 244.001 62.0956L239.588 58.8892C239.238 58.6346 238.763 58.6346 238.412 58.8892L233.999 62.0956C233.215 62.665 232.161 61.8989 232.46 60.9776L234.146 55.7895C234.28 55.3775 234.133 54.9261 233.783 54.6715L229.37 51.465C228.586 50.8956 228.989 49.656 229.957 49.656H235.412C235.846 49.656 236.23 49.377 236.363 48.965L238.049 43.7769Z" fill="#FA9D10"/>
<defs>
<filter id="filter0_d_1_142866" x="217.377" y="0.849854" width="14.6231" height="16" filterUnits="userSpaceOnUse" color-interpolation-filters="sRGB">
<feFlood flood-opacity="0" result="BackgroundImageFix"/>
<feColorMatrix in="SourceAlpha" type="matrix" values="0 0 0 0 0 0 0 0 0 0 0 0 0 0 0 0 0 0 127 0" result="hardAlpha"/>
<feOffset dy="1"/>
<feGaussianBlur stdDeviation="0.5"/>
<feComposite in2="hardAlpha" operator="out"/>
<feColorMatrix type="matrix" values="0 0 0 0 0 0 0 0 0 0 0 0 0 0 0 0 0 0 0.35 0"/>
<feBlend mode="normal" in2="BackgroundImageFix" result="effect1_dropShadow_1_142866"/>
<feBlend mode="normal" in="SourceGraphic" in2="effect1_dropShadow_1_142866" result="shape"/>
</filter>
<filter id="filter1_d_1_142866" x="233" y="20.8499" width="12" height="15" filterUnits="userSpaceOnUse" color-interpolation-filters="sRGB">
<feFlood flood-opacity="0" result="BackgroundImageFix"/>
<feColorMatrix in="SourceAlpha" type="matrix" values="0 0 0 0 0 0 0 0 0 0 0 0 0 0 0 0 0 0 127 0" result="hardAlpha"/>
<feOffset dy="1"/>
<feGaussianBlur stdDeviation="0.5"/>
<feComposite in2="hardAlpha" operator="out"/>
<feColorMatrix type="matrix" values="0 0 0 0 0 0 0 0 0 0 0 0 0 0 0 0 0 0 0.35 0"/>
<feBlend mode="normal" in2="BackgroundImageFix" result="effect1_dropShadow_1_142866"/>
<feBlend mode="normal" in="SourceGraphic" in2="effect1_dropShadow_1_142866" result="shape"/>
</filter>
<filter id="filter2_d_1_142866" x="232.701" y="4.12817" width="25.0208" height="25.0208" filterUnits="userSpaceOnUse" color-interpolation-filters="sRGB">
<feFlood flood-opacity="0" result="BackgroundImageFix"/>
<feColorMatrix in="SourceAlpha" type="matrix" values="0 0 0 0 0 0 0 0 0 0 0 0 0 0 0 0 0 0 127 0" result="hardAlpha"/>
<feOffset dy="1"/>
<feGaussianBlur stdDeviation="0.5"/>
<feComposite in2="hardAlpha" operator="out"/>
<feColorMatrix type="matrix" values="0 0 0 0 0 0 0 0 0 0 0 0 0 0 0 0 0 0 0.35 0"/>
<feBlend mode="normal" in2="BackgroundImageFix" result="effect1_dropShadow_1_142866"/>
<feBlend mode="normal" in="SourceGraphic" in2="effect1_dropShadow_1_142866" result="shape"/>
</filter>
<filter id="filter3_d_1_142866" x="229" y="2.62817" width="30" height="13" filterUnits="userSpaceOnUse" color-interpolation-filters="sRGB">
<feFlood flood-opacity="0" result="BackgroundImageFix"/>
<feColorMatrix in="SourceAlpha" type="matrix" values="0 0 0 0 0 0 0 0 0 0 0 0 0 0 0 0 0 0 127 0" result="hardAlpha"/>
<feOffset dy="1"/>
<feGaussianBlur stdDeviation="0.5"/>
<feComposite in2="hardAlpha" operator="out"/>
<feColorMatrix type="matrix" values="0 0 0 0 0 0 0 0 0 0 0 0 0 0 0 0 0 0 0.35 0"/>
<feBlend mode="normal" in2="BackgroundImageFix" result="effect1_dropShadow_1_142866"/>
<feBlend mode="normal" in="SourceGraphic" in2="effect1_dropShadow_1_142866" result="shape"/>
</filter>
<filter id="filter4_d_1_142866" x="248.5" y="4.62817" width="8" height="8.5" filterUnits="userSpaceOnUse" color-interpolation-filters="sRGB">
<feFlood flood-opacity="0" result="BackgroundImageFix"/>
<feColorMatrix in="SourceAlpha" type="matrix" values="0 0 0 0 0 0 0 0 0 0 0 0 0 0 0 0 0 0 127 0" result="hardAlpha"/>
<feOffset dy="1"/>
<feGaussianBlur stdDeviation="0.25"/>
<feComposite in2="hardAlpha" operator="out"/>
<feColorMatrix type="matrix" values="0 0 0 0 0 0 0 0 0 0 0 0 0 0 0 0 0 0 0.25 0"/>
<feBlend mode="normal" in2="BackgroundImageFix" result="effect1_dropShadow_1_142866"/>
<feBlend mode="normal" in="SourceGraphic" in2="effect1_dropShadow_1_142866" result="shape"/>
</filter>
<filter id="filter5_d_1_142866" x="235.5" y="17.6282" width="8" height="8.5" filterUnits="userSpaceOnUse" color-interpolation-filters="sRGB">
<feFlood flood-opacity="0" result="BackgroundImageFix"/>
<feColorMatrix in="SourceAlpha" type="matrix" values="0 0 0 0 0 0 0 0 0 0 0 0 0 0 0 0 0 0 127 0" result="hardAlpha"/>
<feOffset dy="1"/>
<feGaussianBlur stdDeviation="0.25"/>
<feComposite in2="hardAlpha" operator="out"/>
<feColorMatrix type="matrix" values="0 0 0 0 0 0 0 0 0 0 0 0 0 0 0 0 0 0 0.25 0"/>
<feBlend mode="normal" in2="BackgroundImageFix" result="effect1_dropShadow_1_142866"/>
<feBlend mode="normal" in="SourceGraphic" in2="effect1_dropShadow_1_142866" result="shape"/>
</filter>
<filter id="filter6_d_1_142866" x="218" y="32.8499" width="42" height="10" filterUnits="userSpaceOnUse" color-interpolation-filters="sRGB">
<feFlood flood-opacity="0" result="BackgroundImageFix"/>
<feColorMatrix in="SourceAlpha" type="matrix" values="0 0 0 0 0 0 0 0 0 0 0 0 0 0 0 0 0 0 127 0" result="hardAlpha"/>
<feOffset dy="1"/>
<feGaussianBlur stdDeviation="0.5"/>
<feComposite in2="hardAlpha" operator="out"/>
<feColorMatrix type="matrix" values="0 0 0 0 0 0 0 0 0 0 0 0 0 0 0 0 0 0 0.35 0"/>
<feBlend mode="normal" in2="BackgroundImageFix" result="effect1_dropShadow_1_142866"/>
<feBlend mode="normal" in="SourceGraphic" in2="effect1_dropShadow_1_142866" result="shape"/>
</filter>
<radialGradient id="paint0_radial_1_142866" cx="0" cy="0" r="1" gradientUnits="userSpaceOnUse" gradientTransform="translate(238.505 74.1944) scale(53.505 10.6418)">
<stop/>
<stop offset="0.297" stop-color="#090909" stop-opacity="0.933"/>
<stop offset="1" stop-opacity="0"/>
</radialGradient>
<linearGradient id="paint1_linear_1_142866" x1="224" y1="1.84985" x2="224" y2="13.8499" gradientUnits="userSpaceOnUse">
<stop stop-color="#D0D0D0"/>
<stop offset="1" stop-color="#77787A"/>
</linearGradient>
<linearGradient id="paint2_linear_1_142866" x1="236" y1="26.8499" x2="244" y2="27.3499" gradientUnits="userSpaceOnUse">
<stop stop-opacity="0"/>
<stop offset="0.835"/>
</linearGradient>
<linearGradient id="paint3_linear_1_142866" x1="239" y1="20.8499" x2="239" y2="33.8499" gradientUnits="userSpaceOnUse">
<stop stop-color="#D0D0D0"/>
<stop offset="1" stop-color="#77787A"/>
</linearGradient>
<linearGradient id="paint4_linear_1_142866" x1="273" y1="9.62817" x2="273" y2="20.6282" gradientUnits="userSpaceOnUse">
<stop offset="0.186775"/>
<stop offset="0.786775" stop-opacity="0"/>
</linearGradient>
<linearGradient id="paint5_linear_1_142866" x1="273" y1="9.62817" x2="273" y2="20.6282" gradientUnits="userSpaceOnUse">
<stop stop-color="#77787A"/>
<stop offset="1" stop-color="#D0D0D0"/>
</linearGradient>
<linearGradient id="paint6_linear_1_142866" x1="244" y1="2.62817" x2="244" y2="13.6282" gradientUnits="userSpaceOnUse">
<stop offset="0.298225" stop-color="white"/>
<stop offset="0.678225" stop-color="#373737"/>
<stop offset="0.853225"/>
</linearGradient>
<linearGradient id="paint7_linear_1_142866" x1="244" y1="2.62817" x2="244" y2="13.6282" gradientUnits="userSpaceOnUse">
<stop stop-color="#D0D0D0"/>
<stop offset="1" stop-color="#595959"/>
</linearGradient>
<radialGradient id="paint8_radial_1_142866" cx="0" cy="0" r="1" gradientUnits="userSpaceOnUse" gradientTransform="translate(252.5 6.34985) rotate(90) scale(4)">
<stop offset="0.208225" stop-color="white"/>
<stop offset="1"/>
</radialGradient>
<linearGradient id="paint9_linear_1_142866" x1="252.5" y1="4.62817" x2="252.5" y2="11.6282" gradientUnits="userSpaceOnUse">
<stop stop-color="#D0D0D0"/>
<stop offset="1" stop-color="#77787A"/>
</linearGradient>
<radialGradient id="paint10_radial_1_142866" cx="0" cy="0" r="1" gradientUnits="userSpaceOnUse" gradientTransform="translate(239.5 19.3499) rotate(90) scale(4)">
<stop offset="0.208225" stop-color="white"/>
<stop offset="1"/>
</radialGradient>
<linearGradient id="paint11_linear_1_142866" x1="239.5" y1="17.6282" x2="239.5" y2="24.6282" gradientUnits="userSpaceOnUse">
<stop stop-color="#D0D0D0"/>
<stop offset="1" stop-color="#77787A"/>
</linearGradient>
<linearGradient id="paint12_linear_1_142866" x1="20" y1="8" x2="20" y2="0" gradientUnits="userSpaceOnUse">
<stop stop-color="#D0D0D0"/>
<stop offset="1" stop-color="#77787A"/>
</linearGradient>
</defs>
</svg>
