<svg width="18" height="18" viewBox="0 0 18 18" fill="none" xmlns="http://www.w3.org/2000/svg">
<path d="M16.2489 2H1.75087C1.60284 2.0006 1.45829 2.04494 1.33539 2.12744C1.21248 2.20994 1.11669 2.32692 1.06006 2.46369C1.00343 2.60046 0.98848 2.75091 1.01709 2.89615C1.0457 3.04139 1.1166 3.17493 1.22087 3.28L6.99987 9.061C6.99987 10.703 6.99987 13.5107 6.99988 15.0015C6.99988 15.5538 7.44759 16 7.99988 16H9.99988C10.5522 16 10.9999 15.5523 10.9999 15L10.9999 9.061L16.7799 3.281C16.8845 3.17592 16.9558 3.0422 16.9845 2.8967C17.0133 2.7512 16.9984 2.60044 16.9416 2.46342C16.8848 2.32641 16.7887 2.20928 16.6654 2.12681C16.5421 2.04434 16.3972 2.00021 16.2489 2Z" fill="#C6C6C6"/>
</svg>
