<svg width="16" height="14" viewBox="0 0 16 14" fill="none" xmlns="http://www.w3.org/2000/svg">
<path fill-rule="evenodd" clip-rule="evenodd" d="M15.652 4.98053V11.8985L15.612 12.0985L15.57 12.3235L15.49 12.5065L15.408 12.6895L15.308 12.8535L15.186 13.0365L15.022 13.2005L14.881 13.3435L14.696 13.4655L14.534 13.5655L14.349 13.6655L14.166 13.7475L13.966 13.7875L13.766 13.8085H1.89801L1.69801 13.7875L1.51501 13.7475L1.31501 13.6655L1.13201 13.5655L0.968009 13.4655L0.806009 13.3435L0.62101 13.2005L0.499009 13.0365L0.356009 12.8535L0.27401 12.6895L0.174009 12.5065L0.113009 12.3235L0.0520096 12.0985L0.0310097 11.8985L0.0100098 11.6985V2.53153L0.0310097 2.30653L0.0520096 2.10653L0.113009 1.92353L0.174009 1.72353L0.27401 1.54053L0.356009 1.35553L0.499009 1.19353L0.62101 1.02953L0.806009 0.867527L0.968009 0.767529L1.13201 0.645527L1.31501 0.545528L1.51501 0.505527L1.69801 0.444527L1.89801 0.423527L2.09801 0.402527H5.11901L5.31901 0.423527L5.51901 0.444527L5.71901 0.505527L5.90401 0.545528L6.08701 0.645527L6.25101 0.767529L6.43401 0.867527L6.57701 1.02953L6.73901 1.19353L6.86301 1.35553L6.96301 1.54053L7.06301 1.72353L7.12401 1.92353L7.18501 2.10653L7.20401 2.30653L7.22501 2.53153V2.83853H13.531L13.731 2.85753L13.931 2.87853L14.131 2.93953L14.314 2.98153L14.499 3.08153L14.661 3.18153L14.846 3.30353L14.987 3.46553L15.151 3.62953L15.273 3.79353L15.373 3.97653L15.455 4.15953L15.535 4.35953L15.577 4.54453L15.617 4.74453V4.96753L15.652 4.98053Z" fill="#A8A8A8"/>
</svg>
