<svg width="28" height="28" viewBox="0 0 28 28" fill="none" xmlns="http://www.w3.org/2000/svg">
<path d="M13.8921 16.2522L7.87207 14.5626V18.304C7.88187 20.283 10.5853 21.7148 13.9327 21.7148C17.2801 21.7148 19.868 20.0843 19.994 18.304V14.541L13.8921 16.2522Z" fill="#2497E3"/>
<path d="M14 7.7998L0 11.6434L5.8849 13.2588C5.92987 13.1717 5.99151 13.095 6.0661 13.0331C6.14068 12.9712 6.22668 12.9255 6.3189 12.8987L13.2902 10.9477C13.3406 10.9336 13.3943 10.9402 13.4401 10.9661C13.4858 10.9921 13.5199 11.0353 13.5352 11.0867C13.542 11.1124 13.5438 11.1391 13.5404 11.1655C13.5371 11.1918 13.5286 11.2172 13.5156 11.2402C13.5025 11.2631 13.4852 11.2832 13.4645 11.2991C13.4438 11.315 13.4203 11.3266 13.3952 11.333L6.4253 13.2811C6.37211 13.2969 6.32386 13.3267 6.2853 13.3675L13.9993 15.4856L27.9993 11.642L14 7.7998Z" fill="#2497E3"/>
<path d="M6.81913 18.5981C6.81932 18.4028 6.75521 18.2131 6.63724 18.0601C6.51928 17.9071 6.35441 17.7997 6.16952 17.7554V14.1761L5.78103 14.0674V17.7554C5.77053 17.7554 5.76073 17.7554 5.75023 17.7598C5.59121 17.8032 5.44811 17.8938 5.33868 18.0202C5.22926 18.1466 5.15832 18.3033 5.13469 18.4708C5.11105 18.6384 5.13576 18.8093 5.20574 18.9626C5.27572 19.1158 5.38789 19.2444 5.52833 19.3326C5.51199 19.336 5.49723 19.345 5.48644 19.358C5.47564 19.3711 5.46944 19.3875 5.46883 19.4047L5.38202 24.3149C5.38202 24.3473 5.42263 24.3732 5.47303 24.3732L5.83353 24.3393C5.90945 24.3325 5.9858 24.3325 6.06173 24.3393L6.47473 24.3746C6.52513 24.3746 6.56572 24.3487 6.56572 24.3163L6.48032 19.4047C6.47971 19.3875 6.47351 19.3711 6.46271 19.358C6.45192 19.345 6.43716 19.336 6.42083 19.3326C6.54253 19.2552 6.643 19.1471 6.7127 19.0186C6.78241 18.89 6.81904 18.7453 6.81913 18.5981Z" fill="#2497E3"/>
</svg>
