<svg width="36" height="36" viewBox="0 0 36 36" fill="none" xmlns="http://www.w3.org/2000/svg">
<rect width="36" height="36" rx="18" fill="#9E9E9E"/>
<path d="M20.5918 23.1068C20.616 26.3679 20.6605 29.2418 20.6768 30.2094C20.6799 30.4037 20.5234 30.5549 20.3291 30.5551H17.8379C17.6451 30.5549 17.4891 30.4021 17.4902 30.2094C17.4976 29.1407 17.5202 25.7688 17.5449 22.4643L18.5107 21.9057L20.5918 23.1068ZM25.085 12.7904C25.4375 10.4338 27.8037 9.63072 29.7734 10.7504L27.5137 12.0541L27.583 13.9115L29.166 14.9164L31.4258 13.6117C31.4106 15.8768 29.5376 17.5178 27.3066 16.6391L26.6016 16.3861L11.6816 25.0004C11.6459 26.0139 11.108 26.9871 10.165 27.5316C8.70955 28.3717 6.84827 27.8736 6.00781 26.4184C5.16755 24.9627 5.66648 23.1006 7.12207 22.2602C8.03383 21.7339 9.10485 21.7328 9.98438 22.1635L24.9492 13.5248L25.085 12.7904ZM8.89551 22.7836C8.54994 22.742 8.19358 22.785 7.85547 22.9203L8.07129 23.2953C8.11289 23.3679 8.088 23.4603 8.01562 23.5023L7.75098 23.6547C7.67838 23.6962 7.58691 23.6714 7.54492 23.599L7.32812 23.224C7.04139 23.4491 6.82465 23.7368 6.6875 24.057L7.10742 24.1693C7.1882 24.1913 7.23647 24.2749 7.21484 24.3559L7.13477 24.6498C7.11295 24.7308 7.03027 24.7788 6.94922 24.7572L6.53125 24.6449C6.48979 24.9908 6.53232 25.3476 6.66797 25.6859L7.04297 25.4701C7.11571 25.4283 7.20901 25.4531 7.25098 25.5258L7.40332 25.7895C7.44505 25.8621 7.41924 25.9545 7.34668 25.9965L6.97168 26.2133C7.19704 26.5 7.48514 26.7161 7.80566 26.8529L7.91797 26.435C7.93982 26.354 8.02342 26.3059 8.10449 26.3275L8.39844 26.4057C8.47949 26.4275 8.52759 26.5121 8.50586 26.5932L8.39453 27.0092C8.73953 27.05 9.09518 27.0067 9.43262 26.8715L9.21777 26.4984C9.176 26.4258 9.20094 26.3325 9.27344 26.2904L9.53711 26.1381C9.60973 26.0963 9.70301 26.1213 9.74512 26.1938L9.96094 26.5668C10.2471 26.3417 10.4628 26.0546 10.5996 25.7348L10.1826 25.6234C10.1019 25.6016 10.0539 25.5188 10.0752 25.4379L10.1543 25.143C10.1762 25.0623 10.2591 25.0143 10.3398 25.0356L10.7578 25.1469C10.7989 24.8017 10.7555 24.4446 10.6201 24.1068L10.2471 24.3227C10.1744 24.3646 10.0812 24.3395 10.0391 24.267L9.88672 24.0043C9.8447 23.9315 9.8696 23.8373 9.94238 23.7953L10.3164 23.5795C10.0917 23.2933 9.80392 23.078 9.48438 22.9408L9.37207 23.3588C9.35018 23.4396 9.26646 23.4877 9.18555 23.4662L8.8916 23.3871C8.81051 23.3653 8.76244 23.2817 8.78418 23.2006L8.89551 22.7836ZM29.8545 22.7328C30.5113 23.1466 30.6623 23.9261 30.4453 24.6039C30.2283 25.2817 30.0744 25.5945 29.5762 26.1098C29.0778 26.6251 28.4266 26.9203 27.6807 26.4975L19.1211 21.5551L23.4688 19.0453L29.8545 22.7328ZM7.82324 10.8148L8.52832 12.0268L13.2793 14.7689C13.2912 14.7563 13.3031 14.7427 13.3154 14.7299C13.8139 14.2147 14.4773 13.8626 15.2236 14.2856L18.7725 16.3344L14.4248 18.8441L13.0498 18.0502C12.3929 17.6362 12.2364 16.9789 12.4531 16.3012C12.4717 16.243 12.4919 16.1873 12.5098 16.1332L7.74609 13.3822L6.34473 13.3764L4.51953 11.3178L5.12793 10.2641L7.82324 10.8148ZM20.5811 9.36368C20.7259 9.97009 20.8311 10.6616 20.7822 11.0307C20.6839 11.7712 20.6279 13.3383 20.5996 15.2777L19.5537 15.8813L17.6094 14.7582C17.597 13.8231 17.3888 10.8631 17.3887 10.6098C17.3888 10.4972 17.4495 10.0536 17.5244 9.55313C18.1362 9.82366 18.8094 9.81465 19.3809 9.71426C19.804 9.63987 20.215 9.50858 20.5811 9.36368ZM16.6729 5.68594C17.6883 4.07615 20.4073 5.13484 21.1055 5.5375C21.7494 5.90901 22.4767 5.51956 22.7656 5.18106H24.5537C24.883 5.18106 25.1504 5.44845 25.1504 5.77774V8.1625C25.1504 8.49182 24.883 8.75918 24.5537 8.75918H22.7656C22.508 8.26382 21.6751 8.06065 21.1055 8.36075C20.1807 8.84785 18.372 9.5795 17.3418 8.60879C16.3115 7.63798 15.6744 8.36875 15.4844 8.85586C13.5277 8.85583 13.4039 5.53753 15.4844 5.5375C15.8606 6.32935 16.4332 5.96657 16.6729 5.68594Z" fill="#272727"/>
</svg>
