<svg width="108" height="83" viewBox="0 0 108 83" fill="none" xmlns="http://www.w3.org/2000/svg">
<path opacity="0.32" d="M54.0011 82.0923C83.5511 82.0923 107.506 77.8459 107.506 72.6077C107.506 67.3695 83.5511 63.123 54.0011 63.123C24.4511 63.123 0.496094 67.3695 0.496094 72.6077C0.496094 77.8459 24.4511 82.0923 54.0011 82.0923Z" fill="url(#paint0_radial_954_74422)"/>
<g filter="url(#filter0_d_954_74422)">
<rect fill="white" x="33.4961" y="0.359375" width="13" height="14"/>
<path d="M35.2572 4.50019C34.8511 4.22627 34.7396 3.66948 35.0703 3.30815C35.7194 2.59906 36.5325 2.05296 37.444 1.72122C38.6346 1.28785 39.9319 1.24255 41.1499 1.5918C42.3679 1.94106 43.4441 2.66694 44.2242 3.66541C45.0042 4.66388 45.4482 5.88367 45.4924 7.14998C45.5367 8.41628 45.1789 9.66408 44.4703 10.7145C43.7618 11.765 42.7389 12.5642 41.5482 12.9975C40.3576 13.4309 39.0603 13.4762 37.8423 13.1269C36.9099 12.8596 36.0606 12.3715 35.3637 11.7095C35.0085 11.3721 35.0809 10.8089 35.467 10.5073C35.853 10.2057 36.4056 10.2833 36.781 10.598C37.2319 10.976 37.7594 11.2578 38.3312 11.4218C39.1891 11.6678 40.1029 11.6359 40.9415 11.3306C41.7802 11.0254 42.5006 10.4625 42.9997 9.72259C43.4988 8.9827 43.7508 8.10381 43.7196 7.21189C43.6885 6.31996 43.3758 5.46079 42.8263 4.75752C42.2769 4.05425 41.5189 3.54297 40.661 3.29697C39.8031 3.05098 38.8893 3.08289 38.0507 3.38813C37.4917 3.59159 36.9851 3.90954 36.5617 4.31808C36.2092 4.6582 35.6633 4.77411 35.2572 4.50019Z"/>
<path d="M35.2572 4.50019C34.8511 4.22627 34.7396 3.66948 35.0703 3.30815C35.7194 2.59906 36.5325 2.05296 37.444 1.72122C38.6346 1.28785 39.9319 1.24255 41.1499 1.5918C42.3679 1.94106 43.4441 2.66694 44.2242 3.66541C45.0042 4.66388 45.4482 5.88367 45.4924 7.14998C45.5367 8.41628 45.1789 9.66408 44.4703 10.7145C43.7618 11.765 42.7389 12.5642 41.5482 12.9975C40.3576 13.4309 39.0603 13.4762 37.8423 13.1269C36.9099 12.8596 36.0606 12.3715 35.3637 11.7095C35.0085 11.3721 35.0809 10.8089 35.467 10.5073C35.853 10.2057 36.4056 10.2833 36.781 10.598C37.2319 10.976 37.7594 11.2578 38.3312 11.4218C39.1891 11.6678 40.1029 11.6359 40.9415 11.3306C41.7802 11.0254 42.5006 10.4625 42.9997 9.72259C43.4988 8.9827 43.7508 8.10381 43.7196 7.21189C43.6885 6.31996 43.3758 5.46079 42.8263 4.75752C42.2769 4.05425 41.5189 3.54297 40.661 3.29697C39.8031 3.05098 38.8893 3.08289 38.0507 3.38813C37.4917 3.59159 36.9851 3.90954 36.5617 4.31808C36.2092 4.6582 35.6633 4.77411 35.2572 4.50019Z" fill="#E7E8E9"/>
<path d="M35.2572 4.50019C34.8511 4.22627 34.7396 3.66948 35.0703 3.30815C35.7194 2.59906 36.5325 2.05296 37.444 1.72122C38.6346 1.28785 39.9319 1.24255 41.1499 1.5918C42.3679 1.94106 43.4441 2.66694 44.2242 3.66541C45.0042 4.66388 45.4482 5.88367 45.4924 7.14998C45.5367 8.41628 45.1789 9.66408 44.4703 10.7145C43.7618 11.765 42.7389 12.5642 41.5482 12.9975C40.3576 13.4309 39.0603 13.4762 37.8423 13.1269C36.9099 12.8596 36.0606 12.3715 35.3637 11.7095C35.0085 11.3721 35.0809 10.8089 35.467 10.5073C35.853 10.2057 36.4056 10.2833 36.781 10.598C37.2319 10.976 37.7594 11.2578 38.3312 11.4218C39.1891 11.6678 40.1029 11.6359 40.9415 11.3306C41.7802 11.0254 42.5006 10.4625 42.9997 9.72259C43.4988 8.9827 43.7508 8.10381 43.7196 7.21189C43.6885 6.31996 43.3758 5.46079 42.8263 4.75752C42.2769 4.05425 41.5189 3.54297 40.661 3.29697C39.8031 3.05098 38.8893 3.08289 38.0507 3.38813C37.4917 3.59159 36.9851 3.90954 36.5617 4.31808C36.2092 4.6582 35.6633 4.77411 35.2572 4.50019Z" stroke="url(#paint1_linear_954_74422)" stroke-width="2" mask="url(#path-2-outside-1_954_74422)"/>
</g>
<g filter="url(#filter1_d_954_74422)">
<rect x="49.4961" y="20.3594" width="10" height="13" rx="1" fill="#E8E9EA"/>
<rect x="49.4961" y="20.3594" width="10" height="13" rx="1" fill="#A6A8AB"/>
<rect x="49.4961" y="20.3594" width="10" height="13" rx="1" fill="url(#paint2_linear_954_74422)" fill-opacity="0.4"/>
<rect x="49.9961" y="20.8594" width="9" height="12" rx="0.5" stroke="url(#paint3_linear_954_74422)"/>
</g>
<g filter="url(#filter2_d_954_74422)">
<rect x="74.4961" y="9.13672" width="28" height="11" rx="5.5" transform="rotate(135 74.4961 9.13672)" fill="#E7E8E9"/>
<rect x="74.4961" y="9.13672" width="28" height="11" rx="5.5" transform="rotate(135 74.4961 9.13672)" fill="url(#paint4_linear_954_74422)" fill-opacity="0.4" style="mix-blend-mode:multiply"/>
<rect x="73.789" y="9.13672" width="27" height="10" rx="5" transform="rotate(135 73.789 9.13672)" stroke="url(#paint5_linear_954_74422)"/>
</g>
<g filter="url(#filter3_d_954_74422)">
<rect x="45.4961" y="2.13672" width="28" height="11" rx="5.5" fill="#E7E8E9"/>
<rect x="45.4961" y="2.13672" width="28" height="11" rx="5.5" fill="url(#paint6_linear_954_74422)" fill-opacity="0.4" style="mix-blend-mode:multiply"/>
<rect x="45.9961" y="2.63672" width="27" height="10" rx="5" stroke="url(#paint7_linear_954_74422)"/>
</g>
<g filter="url(#filter4_d_954_74422)">
<circle cx="67.9961" cy="7.63672" r="3.5" fill="#E7E8E9"/>
<circle cx="67.9961" cy="7.63672" r="3.5" fill="url(#paint8_radial_954_74422)" fill-opacity="0.5"/>
<circle cx="67.9961" cy="7.63672" r="3" stroke="url(#paint9_linear_954_74422)"/>
</g>
<g filter="url(#filter5_d_954_74422)">
<circle cx="54.9961" cy="20.6367" r="3.5" fill="#E7E8E9"/>
<circle cx="54.9961" cy="20.6367" r="3.5" fill="url(#paint10_radial_954_74422)" fill-opacity="0.5"/>
<circle cx="54.9961" cy="20.6367" r="3" stroke="url(#paint11_linear_954_74422)"/>
</g>
<g filter="url(#filter6_d_954_74422)">
<rect width="40" height="8" rx="1" transform="matrix(1 0 0 -1 34.4961 40.3594)" fill="#E8E9EA"/>
<rect width="40" height="8" rx="1" transform="matrix(1 0 0 -1 34.4961 40.3594)" fill="black" fill-opacity="0.2"/>
<rect x="0.5" y="-0.5" width="39" height="7" rx="0.5" transform="matrix(1 0 0 -1 34.4961 39.3594)" stroke="url(#paint12_linear_954_74422)"/>
</g>
<g style="mix-blend-mode:plus-lighter">
<path fill-rule="evenodd" clip-rule="evenodd" d="M54.7224 65.5489C54.3288 65.959 53.6729 65.959 53.2793 65.5489L45.0693 56.9932C44.4593 56.3575 44.9098 55.3008 45.7908 55.3008H50.8341L50.8342 52.3008H57.1676L57.1675 55.3008H62.2109C63.0919 55.3008 63.5424 56.3575 62.9324 56.9932L54.7224 65.5489Z" fill="url(#paint13_linear_954_74422)"/>
<g opacity="0.5">
<path d="M57.1693 48.3008H50.8359V51.3008H57.1693V48.3008Z" fill="#CCCCCC"/>
<path d="M57.1693 48.3008H50.8359V51.3008H57.1693V48.3008Z" fill="#3A9211"/>
</g>
<g opacity="0.3">
<path d="M57.1693 44.3008H50.8359V47.3008H57.1693V44.3008Z" fill="#CCCCCC"/>
<path d="M57.1693 44.3008H50.8359V47.3008H57.1693V44.3008Z" fill="#3A9211"/>
</g>
<g opacity="0.15">
<path d="M56.1693 40.3008C56.7216 40.3008 57.1693 40.7485 57.1693 41.3008V43.3008H50.8359V41.3008C50.8359 40.7485 51.2837 40.3008 51.8359 40.3008H56.1693Z" fill="#CCCCCC"/>
<path d="M56.1693 40.3008C56.7216 40.3008 57.1693 40.7485 57.1693 41.3008V43.3008H50.8359V41.3008C50.8359 40.7485 51.2837 40.3008 51.8359 40.3008H56.1693Z" fill="#3A9211"/>
</g>
</g>
<defs>
<filter id="filter0_d_954_74422" x="32.8711" y="0.359375" width="14.625" height="16" filterUnits="userSpaceOnUse" color-interpolation-filters="sRGB">
<feFlood flood-opacity="0" result="BackgroundImageFix"/>
<feColorMatrix in="SourceAlpha" type="matrix" values="0 0 0 0 0 0 0 0 0 0 0 0 0 0 0 0 0 0 127 0" result="hardAlpha"/>
<feOffset dy="1"/>
<feGaussianBlur stdDeviation="0.5"/>
<feComposite in2="hardAlpha" operator="out"/>
<feColorMatrix type="matrix" values="0 0 0 0 0 0 0 0 0 0 0 0 0 0 0 0 0 0 0.35 0"/>
<feBlend mode="normal" in2="BackgroundImageFix" result="effect1_dropShadow_954_74422"/>
<feBlend mode="normal" in="SourceGraphic" in2="effect1_dropShadow_954_74422" result="shape"/>
</filter>
<filter id="filter1_d_954_74422" x="48.4961" y="20.3594" width="12" height="15" filterUnits="userSpaceOnUse" color-interpolation-filters="sRGB">
<feFlood flood-opacity="0" result="BackgroundImageFix"/>
<feColorMatrix in="SourceAlpha" type="matrix" values="0 0 0 0 0 0 0 0 0 0 0 0 0 0 0 0 0 0 127 0" result="hardAlpha"/>
<feOffset dy="1"/>
<feGaussianBlur stdDeviation="0.5"/>
<feComposite in2="hardAlpha" operator="out"/>
<feColorMatrix type="matrix" values="0 0 0 0 0 0 0 0 0 0 0 0 0 0 0 0 0 0 0.35 0"/>
<feBlend mode="normal" in2="BackgroundImageFix" result="effect1_dropShadow_954_74422"/>
<feBlend mode="normal" in="SourceGraphic" in2="effect1_dropShadow_954_74422" result="shape"/>
</filter>
<filter id="filter2_d_954_74422" x="48.1953" y="3.63672" width="25.0234" height="25.0215" filterUnits="userSpaceOnUse" color-interpolation-filters="sRGB">
<feFlood flood-opacity="0" result="BackgroundImageFix"/>
<feColorMatrix in="SourceAlpha" type="matrix" values="0 0 0 0 0 0 0 0 0 0 0 0 0 0 0 0 0 0 127 0" result="hardAlpha"/>
<feOffset dy="1"/>
<feGaussianBlur stdDeviation="0.5"/>
<feComposite in2="hardAlpha" operator="out"/>
<feColorMatrix type="matrix" values="0 0 0 0 0 0 0 0 0 0 0 0 0 0 0 0 0 0 0.35 0"/>
<feBlend mode="normal" in2="BackgroundImageFix" result="effect1_dropShadow_954_74422"/>
<feBlend mode="normal" in="SourceGraphic" in2="effect1_dropShadow_954_74422" result="shape"/>
</filter>
<filter id="filter3_d_954_74422" x="44.4961" y="2.13672" width="30" height="13" filterUnits="userSpaceOnUse" color-interpolation-filters="sRGB">
<feFlood flood-opacity="0" result="BackgroundImageFix"/>
<feColorMatrix in="SourceAlpha" type="matrix" values="0 0 0 0 0 0 0 0 0 0 0 0 0 0 0 0 0 0 127 0" result="hardAlpha"/>
<feOffset dy="1"/>
<feGaussianBlur stdDeviation="0.5"/>
<feComposite in2="hardAlpha" operator="out"/>
<feColorMatrix type="matrix" values="0 0 0 0 0 0 0 0 0 0 0 0 0 0 0 0 0 0 0.35 0"/>
<feBlend mode="normal" in2="BackgroundImageFix" result="effect1_dropShadow_954_74422"/>
<feBlend mode="normal" in="SourceGraphic" in2="effect1_dropShadow_954_74422" result="shape"/>
</filter>
<filter id="filter4_d_954_74422" x="63.9961" y="4.13672" width="8" height="8.5" filterUnits="userSpaceOnUse" color-interpolation-filters="sRGB">
<feFlood flood-opacity="0" result="BackgroundImageFix"/>
<feColorMatrix in="SourceAlpha" type="matrix" values="0 0 0 0 0 0 0 0 0 0 0 0 0 0 0 0 0 0 127 0" result="hardAlpha"/>
<feOffset dy="1"/>
<feGaussianBlur stdDeviation="0.25"/>
<feComposite in2="hardAlpha" operator="out"/>
<feColorMatrix type="matrix" values="0 0 0 0 0 0 0 0 0 0 0 0 0 0 0 0 0 0 0.25 0"/>
<feBlend mode="normal" in2="BackgroundImageFix" result="effect1_dropShadow_954_74422"/>
<feBlend mode="normal" in="SourceGraphic" in2="effect1_dropShadow_954_74422" result="shape"/>
</filter>
<filter id="filter5_d_954_74422" x="50.9961" y="17.1367" width="8" height="8.5" filterUnits="userSpaceOnUse" color-interpolation-filters="sRGB">
<feFlood flood-opacity="0" result="BackgroundImageFix"/>
<feColorMatrix in="SourceAlpha" type="matrix" values="0 0 0 0 0 0 0 0 0 0 0 0 0 0 0 0 0 0 127 0" result="hardAlpha"/>
<feOffset dy="1"/>
<feGaussianBlur stdDeviation="0.25"/>
<feComposite in2="hardAlpha" operator="out"/>
<feColorMatrix type="matrix" values="0 0 0 0 0 0 0 0 0 0 0 0 0 0 0 0 0 0 0.25 0"/>
<feBlend mode="normal" in2="BackgroundImageFix" result="effect1_dropShadow_954_74422"/>
<feBlend mode="normal" in="SourceGraphic" in2="effect1_dropShadow_954_74422" result="shape"/>
</filter>
<filter id="filter6_d_954_74422" x="33.4961" y="32.3594" width="42" height="10" filterUnits="userSpaceOnUse" color-interpolation-filters="sRGB">
<feFlood flood-opacity="0" result="BackgroundImageFix"/>
<feColorMatrix in="SourceAlpha" type="matrix" values="0 0 0 0 0 0 0 0 0 0 0 0 0 0 0 0 0 0 127 0" result="hardAlpha"/>
<feOffset dy="1"/>
<feGaussianBlur stdDeviation="0.5"/>
<feComposite in2="hardAlpha" operator="out"/>
<feColorMatrix type="matrix" values="0 0 0 0 0 0 0 0 0 0 0 0 0 0 0 0 0 0 0.35 0"/>
<feBlend mode="normal" in2="BackgroundImageFix" result="effect1_dropShadow_954_74422"/>
<feBlend mode="normal" in="SourceGraphic" in2="effect1_dropShadow_954_74422" result="shape"/>
</filter>
<radialGradient id="paint0_radial_954_74422" cx="0" cy="0" r="1" gradientUnits="userSpaceOnUse" gradientTransform="translate(54.0011 73.7039) scale(53.505 10.6418)">
<stop/>
<stop offset="0.297" stop-color="#090909" stop-opacity="0.933"/>
<stop offset="1" stop-opacity="0"/>
</radialGradient>
<linearGradient id="paint1_linear_954_74422" x1="39.4961" y1="1.35937" x2="39.4961" y2="13.3594" gradientUnits="userSpaceOnUse">
<stop stop-color="#D0D0D0"/>
<stop offset="1" stop-color="#77787A"/>
</linearGradient>
<linearGradient id="paint2_linear_954_74422" x1="51.4961" y1="26.3594" x2="59.4961" y2="26.8594" gradientUnits="userSpaceOnUse">
<stop stop-opacity="0"/>
<stop offset="0.835"/>
</linearGradient>
<linearGradient id="paint3_linear_954_74422" x1="54.4961" y1="20.3594" x2="54.4961" y2="33.3594" gradientUnits="userSpaceOnUse">
<stop stop-color="#D0D0D0"/>
<stop offset="1" stop-color="#77787A"/>
</linearGradient>
<linearGradient id="paint4_linear_954_74422" x1="88.4961" y1="9.13672" x2="88.4961" y2="20.1367" gradientUnits="userSpaceOnUse">
<stop offset="0.186775"/>
<stop offset="0.786775" stop-opacity="0"/>
</linearGradient>
<linearGradient id="paint5_linear_954_74422" x1="88.4961" y1="9.13672" x2="88.4961" y2="20.1367" gradientUnits="userSpaceOnUse">
<stop stop-color="#77787A"/>
<stop offset="1" stop-color="#D0D0D0"/>
</linearGradient>
<linearGradient id="paint6_linear_954_74422" x1="59.4961" y1="2.13672" x2="59.4961" y2="13.1367" gradientUnits="userSpaceOnUse">
<stop offset="0.298225" stop-color="white"/>
<stop offset="0.678225" stop-color="#373737"/>
<stop offset="0.853225"/>
</linearGradient>
<linearGradient id="paint7_linear_954_74422" x1="59.4961" y1="2.13672" x2="59.4961" y2="13.1367" gradientUnits="userSpaceOnUse">
<stop stop-color="#D0D0D0"/>
<stop offset="1" stop-color="#595959"/>
</linearGradient>
<radialGradient id="paint8_radial_954_74422" cx="0" cy="0" r="1" gradientUnits="userSpaceOnUse" gradientTransform="translate(67.9961 5.8584) rotate(90) scale(4)">
<stop offset="0.208225" stop-color="white"/>
<stop offset="1"/>
</radialGradient>
<linearGradient id="paint9_linear_954_74422" x1="67.9961" y1="4.13672" x2="67.9961" y2="11.1367" gradientUnits="userSpaceOnUse">
<stop stop-color="#D0D0D0"/>
<stop offset="1" stop-color="#77787A"/>
</linearGradient>
<radialGradient id="paint10_radial_954_74422" cx="0" cy="0" r="1" gradientUnits="userSpaceOnUse" gradientTransform="translate(54.9961 18.8584) rotate(90) scale(4)">
<stop offset="0.208225" stop-color="white"/>
<stop offset="1"/>
</radialGradient>
<linearGradient id="paint11_linear_954_74422" x1="54.9961" y1="17.1367" x2="54.9961" y2="24.1367" gradientUnits="userSpaceOnUse">
<stop stop-color="#D0D0D0"/>
<stop offset="1" stop-color="#77787A"/>
</linearGradient>
<linearGradient id="paint12_linear_954_74422" x1="20" y1="8" x2="20" y2="0" gradientUnits="userSpaceOnUse">
<stop stop-color="#D0D0D0"/>
<stop offset="1" stop-color="#77787A"/>
</linearGradient>
<linearGradient id="paint13_linear_954_74422" x1="54.511" y1="66.3753" x2="54.511" y2="51.5725" gradientUnits="userSpaceOnUse">
<stop offset="0.654134" stop-color="#3A9211"/>
<stop offset="1" stop-color="#3A9211" stop-opacity="0.7"/>
</linearGradient>
</defs>
</svg>
