<svg id="Add_sub-layer" data-name="Add sub-layer" xmlns="http://www.w3.org/2000/svg" width="40" height="40" viewBox="0 0 40 40">
  <rect id="Rectangle_678" data-name="Rectangle 678" width="40" height="40" fill="none"/>
  <g id="New_sublayer" transform="translate(2.816 7.9)">
    <rect id="Rectangle_1036" data-name="Rectangle 1036" width="29" height="30" transform="translate(1.897 -2.781)" fill="none"/>
    <path id="Flatten_Layers" d="M272.934,455.244l15.883-8.15-15.883-8.079-15.883,8.079Z" transform="translate(-256.867 -429.303)" fill="#0c0c0c" fill-rule="evenodd" opacity="0.36"/>
    <path id="Flatten_Layers-2" data-name="Flatten_Layers" d="M272.934,455.244l15.883-8.15-15.883-8.079-15.883,8.079Z" transform="translate(-256.867 -431.954)" fill="#ccc" fill-rule="evenodd"/>
    <path id="Flatten_Layers-3" data-name="Flatten_Layers" d="M272.934,455.244l15.883-8.15-15.883-8.079-15.883,8.079Z" transform="translate(-256.867 -437.255)" fill="#0c0c0c" fill-rule="evenodd" opacity="0.41"/>
    <path id="Flatten_Layers-4" data-name="Flatten_Layers" d="M272.934,455.244l15.883-8.15-15.883-8.079-15.883,8.079Z" transform="translate(-256.867 -439.906)" fill="#ccc" fill-rule="evenodd"/>
    <g id="Path_3693" data-name="Path 3693" transform="translate(-19.661 -12.394)" fill="#71a376" fill-rule="evenodd">
      <path d="M 47.72586059570312 37.39678192138672 L 47.67446136474609 37.39678192138672 L 45.5049934387207 37.39678192138672 L 45.44772338867188 37.39678192138672 L 45.39081192016602 37.39024353027344 L 45.16980361938477 37.36484146118164 L 45.10638046264648 37.35755157470703 L 45.04440307617188 37.34226226806641 L 44.84879302978516 37.29399108886719 L 44.66085052490234 37.24761199951172 L 44.50379180908203 37.13444137573242 L 44.3310432434082 37.00997161865234 L 44.32492065429688 37.00557327270508 L 44.31888198852539 37.00107192993164 L 44.12074279785156 36.85372161865234 L 44.02810287475586 36.78483200073242 L 43.9536018371582 36.69665145874023 L 43.82912063598633 36.54931259155273 L 43.74863052368164 36.45403289794922 L 43.69400405883789 36.34190368652344 L 43.59747314453125 36.14375305175781 L 43.5537109375 36.05392074584961 L 43.52859115600586 35.95721054077148 L 43.477783203125 35.76160049438477 L 43.45861053466797 35.68778228759766 L 43.45085144042969 35.61191177368164 L 43.42799377441406 35.38835144042969 L 43.42280197143555 35.33762359619141 L 43.42280197143555 35.2866325378418 L 43.42280197143555 31.5056324005127 L 39.69011306762695 31.5056324005127 L 39.63259124755859 31.5056324005127 L 39.5754508972168 31.49904251098633 L 39.37730407714844 31.47617149353027 L 39.26902389526367 31.46367263793945 L 39.16597366333008 31.42813110351562 L 38.94496154785156 31.3519229888916 L 38.86084365844727 31.32291221618652 L 38.78315353393555 31.27951240539551 L 38.61040115356445 31.18298149108887 L 38.52055358886719 31.13277244567871 L 38.44282150268555 31.06532287597656 L 38.27008056640625 30.91543197631836 L 38.24336242675781 30.89225196838379 L 38.21835327148438 30.86724281311035 L 38.07101058959961 30.71990203857422 L 37.91837310791016 30.56726264953613 L 37.84229278564453 30.36524200439453 L 37.76862335205078 30.16963195800781 L 37.69347381591797 29.9675121307373 L 37.64910125732422 29.84819221496582 L 37.63605117797852 29.72156143188477 L 37.61065292358398 29.47514152526855 L 37.60538101196289 29.42401123046875 L 37.60538101196289 29.37261199951172 L 37.60538101196289 27.18025207519531 L 37.60538101196289 27.12362289428711 L 37.61177062988281 27.06736183166504 L 37.63717269897461 26.84381294250488 L 37.65119171142578 26.7204418182373 L 37.69495391845703 26.60425186157227 L 37.76862335205078 26.40864181518555 L 37.84081268310547 26.21446228027344 L 37.90246200561523 26.04862213134766 L 38.01727294921875 25.91401290893555 L 38.16461181640625 25.74126243591309 L 38.24613189697266 25.64568138122559 L 38.34876251220703 25.5732421875 L 38.51755142211914 25.45409202575684 L 38.68637084960938 25.33245277404785 L 38.85476303100586 25.21111297607422 L 39.05753326416016 25.16682243347168 L 39.27854156494141 25.1185417175293 L 39.32135391235352 25.10919189453125 L 39.36481094360352 25.10362243652344 L 39.56296157836914 25.07822227478027 L 39.62628173828125 25.07010269165039 L 39.69011306762695 25.07010269165039 L 43.42280197143555 25.07010269165039 L 43.42280197143555 21.26368141174316 L 43.42280197143555 21.21210289001465 L 43.4281120300293 21.16079139709473 L 43.45097351074219 20.93978118896484 L 43.45859146118164 20.8660717010498 L 43.47700119018555 20.79428291320801 L 43.52781295776367 20.59613227844238 L 43.55366134643555 20.49532127380371 L 43.59972381591797 20.40199279785156 L 43.69625091552734 20.20638275146484 L 43.73306274414062 20.13178253173828 L 43.78169250488281 20.06430244445801 L 43.90617370605469 19.89155197143555 L 44.020263671875 19.73321151733398 L 44.18551254272461 19.62940216064453 L 44.38365173339844 19.50492286682129 L 44.40540313720703 19.49125289916992 L 44.42782211303711 19.47872161865234 L 44.60057067871094 19.38219261169434 L 44.66093063354492 19.34847259521484 L 44.7253532409668 19.32337188720703 L 44.92096328735352 19.24716186523438 L 45.04676055908203 19.19815254211426 L 45.18105316162109 19.18425178527832 L 45.40206146240234 19.1613826751709 L 45.45339202880859 19.15607261657715 L 45.5049934387207 19.15607261657715 L 47.67446136474609 19.15607261657715 L 47.72077178955078 19.15607261657715 L 47.76688385009766 19.16035270690918 L 48.01329040527344 19.1832218170166 L 48.17547225952148 19.19827270507812 L 48.32450103759766 19.26402282714844 L 48.49725341796875 19.34023284912109 L 48.51457214355469 19.34787178039551 L 48.53159332275391 19.35616111755371 L 48.72973251342773 19.45269203186035 L 48.84185409545898 19.5073127746582 L 48.9371223449707 19.58780288696289 L 49.0844612121582 19.71228218078613 L 49.14690399169922 19.76504135131836 L 49.199951171875 19.82723236083984 L 49.34729385375977 19.9999828338623 L 49.39261245727539 20.0531120300293 L 49.43010330200195 20.11203193664551 L 49.55458068847656 20.30764198303223 L 49.64337158203125 20.44716262817383 L 49.68251037597656 20.60784149169922 L 49.73078155517578 20.80599212646484 L 49.74553298950195 20.86656188964844 L 49.75265121459961 20.92849159240723 L 49.77805328369141 21.14950180053711 L 49.78459167480469 21.20641136169434 L 49.78459167480469 21.26368141174316 L 49.78459167480469 25.07010269165039 L 53.49188232421875 25.07010269165039 L 53.54915237426758 25.07010269165039 L 53.60605239868164 25.0766429901123 L 53.82707214355469 25.10204124450684 L 53.88904190063477 25.10916137695312 L 53.94964218139648 25.12393188476562 L 54.14778137207031 25.17221260070801 L 54.30841064453125 25.21135139465332 L 54.44789123535156 25.30010223388672 L 54.64350128173828 25.4245719909668 L 54.66375350952148 25.43745231628418 L 54.68335342407227 25.45130157470703 L 54.8560905456543 25.5732421875 L 54.99284362792969 25.66977119445801 L 55.09070205688477 25.80558204650879 L 55.21518325805664 25.97833251953125 L 55.26530075073242 26.04788208007812 L 55.30285263061523 26.12495231628418 L 55.39939117431641 26.3231029510498 L 55.41733169555664 26.35993194580078 L 55.43221282958984 26.39811134338379 L 55.5084114074707 26.59372138977051 L 55.55762100219727 26.72005271911621 L 55.5714225769043 26.85493278503418 L 55.59429168701172 27.07848167419434 L 55.59948348999023 27.12923240661621 L 55.59948348999023 27.18025207519531 L 55.59947204589844 29.37261199951172 L 55.59947204589844 29.41890144348145 L 55.59519195556641 29.4649829864502 L 55.57233047485352 29.71140289306641 L 55.55957412719727 29.84901237487793 L 55.50996398925781 29.97800254821777 L 55.43375396728516 30.17615127563477 L 55.41736221313477 30.21877288818359 L 55.39715194702148 30.25971221923828 L 55.30062103271484 30.455322265625 L 55.2465705871582 30.56485176086426 L 55.16775131225586 30.65815162658691 L 55.04327392578125 30.80549240112305 L 54.99328231811523 30.86466217041016 L 54.93477249145508 30.91543197631836 L 54.76203155517578 31.06532287597656 L 54.66472244262695 31.14976119995117 L 54.5491828918457 31.20677185058594 L 54.35357284545898 31.30330276489258 L 54.3126335144043 31.32351112365723 L 54.27001190185547 31.33990287780762 L 54.07186126708984 31.41611289978027 L 53.94791412353516 31.46378135681152 L 53.81582260131836 31.47745132446289 L 53.59481048583984 31.50032234191895 L 53.54348373413086 31.5056324005127 L 53.49188232421875 31.5056324005127 L 49.78459167480469 31.5056324005127 L 49.78459167480469 35.2866325378418 L 49.78459167480469 35.34326171875 L 49.77820205688477 35.39952087402344 L 49.75280380249023 35.62308120727539 L 49.74552154541016 35.68716049194336 L 49.73007202148438 35.74977111816406 L 49.68180084228516 35.94538116455078 L 49.64326095581055 36.1015510559082 L 49.55769348144531 36.23775100708008 L 49.43321228027344 36.4359016418457 L 49.37325286865234 36.53135299682617 L 49.29355239868164 36.61106109619141 L 49.14621353149414 36.75840377807617 L 48.99889373779297 36.90572357177734 L 48.91917037963867 36.98545074462891 L 48.82370376586914 37.0454216003418 L 48.62556076049805 37.16989135742188 L 48.50259399414062 37.24714279174805 L 48.36273193359375 37.28622055053711 L 48.18998336791992 37.33449172973633 L 48.1080436706543 37.35739135742188 L 48.02341079711914 37.36611175537109 L 47.77700042724609 37.39151382446289 L 47.72586059570312 37.39678192138672 Z" stroke="none"/>
      <path d="M 45.5049934387207 20.15607070922852 L 45.28398132324219 20.17893981933594 L 45.08837127685547 20.25514984130859 L 44.91562271118164 20.35168075561523 L 44.71748352050781 20.47616958618164 L 44.59300231933594 20.64891052246094 L 44.4964714050293 20.84452056884766 L 44.44566345214844 21.04267120361328 L 44.42280197143555 21.26369094848633 L 44.42280197143555 26.07010078430176 L 39.69011306762695 26.07010078430176 L 39.49196243286133 26.09551048278809 L 39.27095413208008 26.14377975463867 L 38.92546081542969 26.39019012451172 L 38.77812194824219 26.56294059753418 L 38.63078308105469 26.95669937133789 L 38.60537338256836 27.18025970458984 L 38.60537338256836 29.37261009216309 L 38.63078308105469 29.6190299987793 L 38.77812194824219 30.01279067993164 L 38.92546081542969 30.16014099121094 L 39.09820175170898 30.31002044677734 L 39.27095413208008 30.40654945373535 L 39.49196243286133 30.48275947570801 L 39.69011306762695 30.50563049316406 L 44.42280197143555 30.50563049316406 L 44.42280197143555 35.28664016723633 L 44.44566345214844 35.51019287109375 L 44.4964714050293 35.70580291748047 L 44.59300231933594 35.90394973754883 L 44.71748352050781 36.05130004882812 L 44.91562271118164 36.19863891601562 L 45.08837127685547 36.3231201171875 L 45.28398132324219 36.37137985229492 L 45.5049934387207 36.39678955078125 L 47.67446136474609 36.39678955078125 L 47.92087173461914 36.37137985229492 L 48.09362411499023 36.3231201171875 L 48.29176330566406 36.19863891601562 L 48.58644104003906 35.90394973754883 L 48.71092224121094 35.70580291748047 L 48.75919342041016 35.51019287109375 L 48.78459167480469 35.28664016723633 L 48.78459167480469 30.50563049316406 L 53.49188232421875 30.50563049316406 L 53.712890625 30.48275947570801 L 53.91104125976562 30.40654945373535 L 54.10664367675781 30.31002044677734 L 54.27939224243164 30.16014099121094 L 54.40387344360352 30.01279067993164 L 54.50040054321289 29.81718063354492 L 54.57661056518555 29.6190299987793 L 54.59947204589844 29.37261009216309 L 54.59948348999023 27.18025970458984 L 54.57661056518555 26.95669937133789 L 54.50041198730469 26.76108932495117 L 54.40387344360352 26.56294059753418 L 54.27939224243164 26.39019012451172 L 54.10665130615234 26.26826095581055 L 53.91104125976562 26.14377975463867 L 53.7129020690918 26.09551048278809 L 53.49188232421875 26.07010078430176 L 48.78459167480469 26.07010078430176 L 48.78459167480469 21.26369094848633 L 48.75919342041016 21.04267120361328 L 48.71092224121094 20.84452056884766 L 48.58644104003906 20.64891052246094 L 48.43910217285156 20.47616958618164 L 48.29176330566406 20.35168075561523 L 48.09362411499023 20.25514984130859 L 47.92087173461914 20.17893981933594 L 47.67446136474609 20.15607070922852 L 45.5049934387207 20.15607070922852 M 45.40179061889648 18.15607070922852 L 47.76707077026367 18.15607070922852 L 48.43007278442383 18.21760177612305 L 48.96956253051758 18.45716857910156 L 49.39198303222656 18.66297149658203 L 49.85471343994141 19.05392837524414 L 50.19876098632812 19.45729064941406 L 50.57581329345703 20.04980087280273 L 50.73188400268555 20.69044876098633 L 50.78459167480469 21.14915084838867 L 50.78459167480469 24.07009887695312 L 53.60647201538086 24.07009887695312 L 54.0651741027832 24.12284088134766 L 54.70577239990234 24.27888870239258 L 55.25999069213867 24.63430976867676 L 55.70627212524414 24.94931983947754 L 56.12673187255859 25.5328197479248 L 56.33426284790039 25.95877075195312 L 56.53863143920898 26.4834098815918 L 56.59948348999023 27.0782299041748 L 56.59947204589844 29.46517944335938 L 56.54253387451172 30.07900047302246 L 56.33432388305664 30.62035942077637 L 56.08929061889648 31.11688041687012 L 55.7071533203125 31.5692310333252 L 55.22274398803711 31.98950958251953 L 54.7142333984375 32.24045944213867 L 54.18294143676758 32.44480133056641 L 53.5950813293457 32.50563049316406 L 50.78459167480469 32.50563049316406 L 50.78459167480469 35.39990234375 L 50.73184204101562 35.86412811279297 L 50.57560348510742 36.49729156494141 L 50.16008377075195 37.15872192382812 L 49.54658126831055 37.77224731445312 L 48.91156387329102 38.17119979858398 L 48.29520034790039 38.34339141845703 L 47.77731323242188 38.39678955078125 L 45.39040374755859 38.39678955078125 L 44.92879104614258 38.34371948242188 L 44.23332214355469 38.17214202880859 L 43.72219085693359 37.80353927612305 L 43.33872222900391 37.51839065551758 L 42.90424346923828 37.00408935546875 L 42.6109504699707 36.40203857421875 L 42.47155380249023 35.86537933349609 L 42.42280197143555 35.38862991333008 L 42.42280197143555 32.50563049316406 L 39.5750732421875 32.50563049316406 L 39.04608154296875 32.44457244873047 L 38.45072174072266 32.23928070068359 L 37.94294357299805 31.95553970336914 L 37.56126403808594 31.62437057495117 L 37.05861282348633 31.12169075012207 L 36.66744232177734 30.07739067077637 L 36.60537338256836 29.47545051574707 L 36.60537338256836 27.06695938110352 L 36.67161178588867 26.48414993286133 L 37.02680206298828 25.53429985046387 L 37.56683349609375 24.9011402130127 L 38.10172271728516 24.52116012573242 L 38.43857192993164 24.2784309387207 L 39.15074157714844 24.12289047241211 L 39.56240081787109 24.07009887695312 L 42.42280197143555 24.07009887695312 L 42.42280197143555 21.16054153442383 L 42.47152328491211 20.68946838378906 L 42.6108512878418 20.14612197875977 L 42.87313079833984 19.61463165283203 L 43.32304382324219 18.99029159545898 L 43.8951530456543 18.63084030151367 L 44.23348236083984 18.44179153442383 L 44.80953216552734 18.21736145019531 L 45.40179061889648 18.15607070922852 Z" stroke="none" fill="#1c1e1f"/>
    </g>
  </g>
</svg>
