<svg id="Remove_sub-layer" data-name="Remove sub-layer" xmlns="http://www.w3.org/2000/svg" width="40" height="40" viewBox="0 0 40 40">
  <rect id="Rectangle_678" data-name="Rectangle 678" width="40" height="40" fill="none"/>
  <g id="New_sublayer" transform="translate(2.816 7.9)">
    <rect id="Rectangle_1036" data-name="Rectangle 1036" width="29" height="30" transform="translate(1.897 -2.781)" fill="none"/>
    <path id="Flatten_Layers" d="M272.934,455.244l15.883-8.15-15.883-8.079-15.883,8.079Z" transform="translate(-256.867 -429.303)" fill="#0c0c0c" fill-rule="evenodd" opacity="0.36"/>
    <path id="Flatten_Layers-2" data-name="Flatten_Layers" d="M272.934,455.244l15.883-8.15-15.883-8.079-15.883,8.079Z" transform="translate(-256.867 -431.954)" fill="#ccc" fill-rule="evenodd"/>
    <path id="Flatten_Layers-3" data-name="Flatten_Layers" d="M272.934,455.244l15.883-8.15-15.883-8.079-15.883,8.079Z" transform="translate(-256.867 -437.255)" fill="#0c0c0c" fill-rule="evenodd" opacity="0.41"/>
    <path id="Flatten_Layers-4" data-name="Flatten_Layers" d="M272.934,455.244l15.883-8.15-15.883-8.079-15.883,8.079Z" transform="translate(-256.867 -439.906)" fill="#ccc" fill-rule="evenodd"/>
    <path id="Path_5790" data-name="Path 5790" d="M-5517.716-530.957h-.5l-.083-.019-.228-.051-.106-.025-.1-.053-.155-.087-.056-.032-.05-.04-.191-.156-.031-.025-.026-.028-1.535-1.533-.03-.031-.026-.033-.139-.175-.029-.037-.025-.04-.1-.172-.075-.125-.023-.143-.035-.21v-.011l-.036-.244-.012-.086.007-.086.017-.193.008-.093.031-.087.071-.208.025-.071.038-.065.1-.174.029-.05.036-.044.142-.174.025-.031.026-.026,2.85-2.85-2.815-2.816-.03-.031-.028-.035-.124-.156-.05-.064-.036-.074-.1-.21-.029-.061-.018-.064-.054-.19-.021-.074-.006-.078-.017-.228v-.424l.067-.147.086-.19.09-.2.039-.086.061-.075.155-.192.025-.029.026-.028,1.55-1.55.03-.031.034-.026.176-.14.072-.058.084-.038.19-.086.19-.088.121-.056.132-.01.227-.018.094-.007.092.015.206.035.206.035.154.025.13.083.19.122.029.018.025.019.158.122.039.029.034.035,2.816,2.815,2.868-2.868.028-.028.029-.024.172-.14.043-.035.048-.029.175-.1.068-.039.074-.025.207-.071.058-.019.063-.01.21-.035.144-.024.143.033.228.051.02,0,.018.006.19.054.05.014.047.021.193.085.093.04.078.064.172.14.031.025.026.026,1.535,1.535.025.024.022.028.157.19.079.094.044.114.068.175,0,.014.005.013.072.21.029.088.008.093.017.193,0,.061,0,.061-.018.226,0,.051-.011.051-.051.226-.026.121-.064.107-.107.174-.024.04-.029.036-.138.175-.028.033-.03.031-2.868,2.868,2.8,2.8.031.031.026.033.138.174.03.038.024.04.105.174.065.106.026.121.05.226,0,.018,0,.018.036.208.021.124-.02.124-.035.211-.01.063-.021.061-.072.208-.01.029-.012.028-.085.193-.04.093-.064.078-.143.175-.023.029-.028.028-1.549,1.55-.025.025-.026.022-.191.157-.08.067-.094.042-.194.086-.031.015-.033.01-.207.071-.086.029-.092.008-.191.015-.059.006-.058,0-.228-.017-.1-.007-.092-.031-.207-.071-.032-.01-.032-.015-.193-.086-.091-.04-.078-.062-.172-.14-.029-.024-.028-.028-2.8-2.8-2.85,2.85-.03.031-.033.026-.177.14-.038.031-.042.025-.172.1-.1.063-.118.026-.228.051-.083.019Z" transform="translate(5541 555.131)" fill="#cb6a6a" stroke="#1c1e1f" stroke-width="2"/>
  </g>
</svg>
