<svg width="18" height="18" viewBox="0 0 18 18" fill="none" xmlns="http://www.w3.org/2000/svg">
<path fill-rule="evenodd" clip-rule="evenodd" d="M16.0005 12.9303V14.1643L15.9615 14.2573L15.9055 14.3523L15.8305 14.4453L15.7575 14.5203L15.6625 14.5763L15.5505 14.5953H3.22052L3.10651 14.5763L3.01352 14.5203L2.91852 14.4453L2.86252 14.3523L2.80652 14.2573L2.76953 14.1643V12.8163L2.80652 12.7043L2.86252 12.6293L2.91852 12.5363L3.01352 12.4613L3.10651 12.4053L3.22052 12.3683H15.5505L15.6625 12.4053L15.7575 12.4613L15.8305 12.5363L15.9055 12.6293L15.9615 12.7043L16.0005 12.8163V12.9303ZM16.0005 8.45727V9.67827L15.9615 9.77127L15.9055 9.86627L15.8305 9.95927L15.7575 10.0343L15.6625 10.0903L15.5505 10.1093L15.4385 10.1263H3.31351L3.22052 10.1093L3.10651 10.0903L3.01352 10.0343L2.91852 9.95927L2.86252 9.86627L2.80652 9.77127L2.77451 9.67827V8.34527L2.81152 8.23327L2.86752 8.15827L2.92352 8.06327L3.01852 7.98827L3.11151 7.93227L3.22552 7.89527L3.31851 7.87627H15.4445L15.5565 7.89527L15.6685 7.93227L15.7635 7.98827L15.8365 8.06327L15.9115 8.15827L15.9675 8.23327L16.0065 8.34527L16.0005 8.45727ZM16.0005 3.96727V5.20127L15.9615 5.29427L15.9055 5.38927L15.8305 5.48227L15.7575 5.55727L15.6625 5.61327L15.5505 5.63227H3.22052L3.10651 5.61327L3.01352 5.55727L2.91852 5.48227L2.86252 5.38927L2.80652 5.29427L2.76953 5.20127V3.85327L2.80652 3.74127L2.86252 3.66627L2.91852 3.57327L3.01352 3.49827L3.10651 3.44227L3.22052 3.40527H15.5505L15.6625 3.44227L15.7575 3.49827L15.8305 3.57327L15.9055 3.66627L15.9615 3.74127L16.0005 3.85327V3.96727Z" fill="#C6C6C6"/>
</svg>
