<svg width="12" height="13" viewBox="0 0 12 13" fill="none" xmlns="http://www.w3.org/2000/svg">
<g opacity="0.3">
<path fill-rule="evenodd" clip-rule="evenodd" d="M3.57361 12.0471H3.46704H0.507984H0.255249V11.7944V8.78358V8.68076L0.327025 8.60715L6.22917 2.55348L6.41037 2.36762L6.59132 2.55372L9.53448 5.58056L9.70603 5.75698L9.53425 5.93317L3.648 11.9708L3.57361 12.0471ZM2.57932 10.6106L2.97428 10.6106L3.37572 10.1973L2.06174 8.86118L1.65498 9.26206V9.67947H2.32658H2.57932V9.93221V10.6106ZM9.81599 5.65429L9.63424 5.46738L6.69114 2.44055L6.52037 2.26491L6.6906 2.08875L7.84531 0.893693L7.85657 0.882032L7.86923 0.871913L8.02329 0.74873L8.032 0.741769L8.04129 0.735598L8.18098 0.642808L8.21622 0.61941L8.25714 0.608755L8.44148 0.560766L8.47279 0.552612H8.50516H8.67509H8.85933H8.89433L8.92802 0.562125L9.09795 0.610115L9.13059 0.619334L9.15964 0.636834L9.31371 0.729622L9.33393 0.741789L9.35153 0.757484L9.48969 0.880667L9.49587 0.886187L9.50169 0.892096L11.1662 2.58469L11.1754 2.594L11.1836 2.60421L11.3075 2.75939L11.3246 2.78091L11.3368 2.80561L11.413 2.96079L11.4239 2.98289L11.4303 3.00668L11.4763 3.17786L11.4821 3.19951L11.484 3.22185L11.4999 3.40743L11.5018 3.42903L11.4999 3.45062L11.484 3.6362L11.4821 3.65854L11.4763 3.6802L11.4303 3.85138L11.4239 3.87515L11.413 3.89725L11.3368 4.05243L11.3216 4.08332L11.2987 4.10901L11.1748 4.24819L11.1714 4.25206L11.1678 4.25579L9.99716 5.46685L9.81599 5.65429Z" fill="#A8A8A8"/>
<path fill-rule="evenodd" clip-rule="evenodd" d="M3.46452 11.7946L9.35078 5.75692L6.40761 2.73008L0.50547 8.78375V11.7946H3.46452ZM2.06202 8.50375L3.72661 10.1963L3.0786 10.8635L2.32407 10.8635V9.93238H1.39973V9.15646L2.06202 8.50375ZM6.63792 3.97313L6.69987 3.98753L6.74596 4.00353L6.77774 4.04992L6.79199 4.12831L6.77774 4.2051L6.73162 4.2515L2.8943 8.19342L2.83235 8.22541L2.77046 8.23982H2.70851L2.66242 8.19342L2.63228 8.14702L2.61636 8.07024L2.63228 8.00785L2.66242 7.96145L6.51566 4.00353L6.56165 3.98753L6.63792 3.97313ZM9.81293 5.29137L10.9835 4.08031L11.1074 3.94114L11.1837 3.78595L11.2297 3.61478L11.2456 3.4292L11.2297 3.24362L11.1837 3.07244L11.1074 2.91726L10.9835 2.76207L9.31897 1.06948L9.18082 0.946297L9.02675 0.853508L8.85682 0.805519H8.50264L8.31831 0.853508L8.17861 0.946297L8.02454 1.06948L6.86983 2.26453L9.81293 5.29137ZM3.67766 12.3H0V8.57812L6.40809 2.0055L6.41267 2.01022L7.68357 0.694932L7.88037 0.537579L8.1091 0.385655L8.43793 0.300049H8.92682L9.22941 0.385503L9.48201 0.537625L9.67936 0.715055L11.3622 2.42627L11.5368 2.6449L11.6591 2.8937L11.7295 3.15574L11.7529 3.4292L11.7295 3.70265L11.6591 3.96469L11.5307 4.22584L11.347 4.43161L9.81401 6.01756L9.80832 6.0117L3.67766 12.3ZM2.82954 10.358H2.86491L3.01982 10.1985L2.82954 10.0051V10.358ZM1.9052 9.42691H2.26095L2.05643 9.21895L1.9052 9.368V9.42691Z" fill="#00101F"/>
</g>
</svg>
