<svg width="18" height="18" viewBox="0 0 18 18" fill="none" xmlns="http://www.w3.org/2000/svg">
<path fill-rule="evenodd" clip-rule="evenodd" d="M14.5718 11.972L14.7008 12.124L14.7658 12.298L14.8078 12.47L14.8298 12.67L14.8078 12.864L14.7658 13.058L14.7008 13.21L14.5718 13.362L13.2298 14.718L13.0578 14.849L12.9058 14.934L12.7318 14.979L12.5378 15.001L12.3378 14.979L12.1658 14.934L11.9918 14.849L11.8408 14.718L8.92981 11.756L6.01082 14.718L5.88182 14.849L5.70781 14.934L5.51381 14.979L5.31381 15.001L5.14182 14.979L4.94781 14.934L4.77382 14.849L4.64482 14.718L3.28082 13.356L3.17381 13.204L3.08682 13.052L3.02982 12.859L3.00781 12.665L3.02982 12.465L3.09482 12.293L3.18181 12.119L3.28882 11.967L6.22981 8.985L3.28882 6.021L3.18181 5.872L3.09482 5.698L3.02982 5.53L3.00781 5.336L3.02982 5.142L3.09482 4.968L3.18181 4.816L3.28882 4.644L4.65282 3.28L4.78181 3.151L4.95581 3.064L5.14981 3.022L5.32182 3L5.52182 3.022L5.71582 3.064L5.88982 3.151L6.01881 3.28L8.93782 6.264L11.8548 3.28L12.0058 3.151L12.1798 3.064L12.3518 3.022L12.5518 3L12.7458 3.022L12.9198 3.064L13.0718 3.151L13.2438 3.28L14.5858 4.644L14.7148 4.816L14.7798 4.968L14.8218 5.142L14.8438 5.336L14.8218 5.53L14.7798 5.704L14.7148 5.878L14.5858 6.027L11.6298 8.991L14.5718 11.972Z" fill="#9E9E9E"/>
</svg>
