<svg width="18" height="19" viewBox="0 0 18 19" fill="none" xmlns="http://www.w3.org/2000/svg">
<g opacity="0.25">
<path fill-rule="evenodd" clip-rule="evenodd" d="M14.568 12.271L14.697 12.423L14.762 12.597L14.804 12.769L14.826 12.969L14.804 13.163L14.762 13.357L14.697 13.509L14.568 13.661L13.226 15.017L13.054 15.148L12.902 15.233L12.728 15.278L12.534 15.3L12.334 15.278L12.162 15.233L11.988 15.148L11.837 15.017L8.92603 12.055L6.00703 15.017L5.87804 15.148L5.70403 15.233L5.51003 15.278L5.31003 15.3L5.13803 15.278L4.94403 15.233L4.77003 15.148L4.64104 15.017L3.27704 13.655L3.17003 13.503L3.08304 13.351L3.02603 13.158L3.00403 12.964L3.02603 12.764L3.09103 12.592L3.17802 12.418L3.28503 12.266L6.22603 9.28404L3.28503 6.32004L3.17802 6.17104L3.09103 5.99704L3.02603 5.82904L3.00403 5.63504L3.02603 5.44104L3.09103 5.26704L3.17802 5.11504L3.28503 4.94304L4.64903 3.57904L4.77803 3.45004L4.95203 3.36304L5.14603 3.32104L5.31804 3.29904L5.51804 3.32104L5.71204 3.36304L5.88603 3.45004L6.01503 3.57904L8.93404 6.56304L11.851 3.57904L12.002 3.45004L12.176 3.36304L12.348 3.32104L12.548 3.29904L12.742 3.32104L12.916 3.36304L13.068 3.45004L13.24 3.57904L14.582 4.94304L14.711 5.11504L14.776 5.26704L14.818 5.44104L14.84 5.63504L14.818 5.82904L14.776 6.00304L14.711 6.17704L14.582 6.32604L11.626 9.29004L14.568 12.271Z" fill="#CB6A6A" stroke="#493030"/>
</g>
</svg>
