<svg width="18" height="18" viewBox="0 0 18 18" fill="none" xmlns="http://www.w3.org/2000/svg">
<path fill-rule="evenodd" clip-rule="evenodd" d="M14.5679 11.971L14.6969 12.123L14.7619 12.297L14.8039 12.469L14.8259 12.669L14.8039 12.863L14.7619 13.057L14.6969 13.209L14.5679 13.361L13.2259 14.717L13.0539 14.848L12.9019 14.933L12.7279 14.978L12.5339 15L12.3339 14.978L12.1619 14.933L11.9879 14.848L11.8369 14.717L8.9259 11.755L6.00691 14.717L5.87791 14.848L5.7039 14.933L5.5099 14.978L5.30991 15L5.13791 14.978L4.94391 14.933L4.76991 14.848L4.64091 14.717L3.27692 13.355L3.16991 13.203L3.08292 13.051L3.02591 12.858L3.00391 12.664L3.02591 12.464L3.09091 12.292L3.1779 12.118L3.28491 11.966L6.22591 8.98402L3.28491 6.02002L3.1779 5.87102L3.09091 5.69702L3.02591 5.52902L3.00391 5.33502L3.02591 5.14102L3.09091 4.96702L3.1779 4.81502L3.28491 4.64302L4.64891 3.27902L4.77791 3.15002L4.9519 3.06302L5.1459 3.02102L5.31792 2.99902L5.51791 3.02102L5.71191 3.06302L5.88591 3.15002L6.01491 3.27902L8.93391 6.26302L11.8509 3.27902L12.0019 3.15002L12.1759 3.06302L12.3479 3.02102L12.5479 2.99902L12.7419 3.02102L12.9159 3.06302L13.0679 3.15002L13.2399 3.27902L14.5819 4.64302L14.7109 4.81502L14.7759 4.96702L14.8179 5.14102L14.8399 5.33502L14.8179 5.52902L14.7759 5.70302L14.7109 5.87702L14.5819 6.02602L11.6259 8.99002L14.5679 11.971Z" fill="#CB6A6A" stroke="#493030"/>
</svg>
