<svg width="17" height="17" viewBox="0 0 17 17" fill="none" xmlns="http://www.w3.org/2000/svg">
<path fill-rule="evenodd" clip-rule="evenodd" d="M13.867 0.0634766L14.154 0.0834961L14.422 0.120483L14.69 0.197479L14.938 0.297485L15.186 0.391479L15.414 0.545502L15.644 0.716492L15.835 0.92749L16.044 1.13647L16.198 1.3475L16.351 1.61548L16.485 1.84348L16.56 2.11148L16.617 2.37949L16.676 2.64749V3.2395L16.617 3.52448L16.56 3.79248L16.485 4.0405L16.351 4.28848L16.198 4.5365L16.044 4.7475L15.835 4.9585L13.867 6.94449L14.784 7.87949L14.841 7.9165V7.97348L14.861 8.08948L14.841 8.1835V8.24048L14.784 8.27948L12.932 10.1495L12.855 10.2265L12.741 10.2465L12.627 10.2265L12.57 10.2085L12.55 10.1495L11.596 9.21448L6.32599 14.6145L6.13501 14.7465L5.96399 14.8625L5.73602 14.9195L5.52502 14.9375H3.72998L1.47699 16.0655L0.924011 15.5125L2.04999 13.2195V11.4225L2.07001 11.1745L2.12701 10.9655L2.22699 10.7745L2.37903 10.6015L7.66699 5.21649L6.75201 4.28149L6.67499 4.1875V3.95749L6.75201 3.88049L8.604 1.99149L8.698 1.93448L8.755 1.91449H8.81403L8.90802 1.93448L9.008 1.99149L9.92297 2.90848L11.889 0.922485L12.1 0.711487L12.311 0.540497L12.559 0.386475L12.787 0.29248L13.037 0.192474L13.303 0.115479L13.571 0.0784912L13.867 0.0634766ZM5.40997 13.2175L10.488 8.08249L8.80902 6.3645L3.72998 11.4995V13.2175H5.40997Z" fill="#A8A8A8"/>
</svg>
