<svg width="18" height="19" viewBox="0 0 18 19" fill="none" xmlns="http://www.w3.org/2000/svg">
<path fill-rule="evenodd" clip-rule="evenodd" d="M5.43799 15.082H12.295V11.603H5.43799V15.082ZM13.461 15.082H14.588V6.80299L14.548 6.70299L14.51 6.60299L14.47 6.48699L14.412 6.40899L14.374 6.35099L14.317 6.30299L11.81 3.75799L11.772 3.69999L11.694 3.66199L11.594 3.60199L11.516 3.56399L11.4 3.50599L11.3 3.48599L11.242 3.46799H11.164V7.25299L11.146 7.40899L11.086 7.58299L11.01 7.73899L10.91 7.85499L10.774 7.97099L10.62 8.07099L10.484 8.08899L10.29 8.10899H5.142L4.966 8.08899L4.81198 8.07099L4.65601 7.97099L4.53998 7.85499L4.42398 7.73899L4.34598 7.58299L4.30798 7.40899L4.28799 7.25299V3.46699H3.14301V15.082H4.28799V11.314L4.30798 11.14L4.34598 10.984L4.42398 10.828L4.53998 10.712L4.65601 10.596L4.81198 10.496L4.966 10.458L5.142 10.438H12.58L12.756 10.458L12.91 10.496L13.066 10.596L13.202 10.712L13.302 10.828L13.38 10.984L13.438 11.14L13.458 11.314L13.461 15.082ZM10.023 6.67099V3.75699L10.003 3.71899L9.983 3.66099L9.92499 3.54299L9.849 3.48499L9.73099 3.46699H8.00299L7.90298 3.48499L7.80298 3.54299L7.745 3.66099L7.72501 3.76099V6.67399L7.745 6.77399L7.80298 6.87399L7.90298 6.95199L8.00299 6.97199H9.73099L9.849 6.95199L9.92499 6.87399L9.983 6.77399L10.003 6.73399L10.023 6.67099ZM15.733 6.96299V15.392L15.713 15.568L15.675 15.742L15.597 15.878L15.497 16.014L15.361 16.114L15.225 16.192L15.051 16.25L14.895 16.27H2.875L2.681 16.25L2.54498 16.192L2.36899 16.114L2.25299 16.014L2.13699 15.878L2.05899 15.742L2.021 15.568L2.00101 15.392V3.17499L2.021 3.00099L2.05899 2.84499L2.13699 2.68899L2.25299 2.55499L2.36899 2.43699L2.54498 2.37899L2.681 2.32099L2.875 2.30099H11.168L11.344 2.32099L11.538 2.36099L11.732 2.41899L11.944 2.47699L12.158 2.57699L12.332 2.69299L12.488 2.79299L12.624 2.92899L15.124 5.47399L15.242 5.60999L15.358 5.76399L15.474 5.95799L15.574 6.15199L15.634 6.38599L15.692 6.57999L15.73 6.77399L15.733 6.96299Z" fill="#A8A8A8"/>
</svg>
