<svg width="20" height="20" viewBox="0 0 20 20" fill="none" xmlns="http://www.w3.org/2000/svg">
<path fill-rule="evenodd" clip-rule="evenodd" d="M1.06868 4.29204L0.85201 4.31376L0.631646 4.38433L0.460902 4.45851L0.29013 4.60147L0.145051 4.76974L0.0734361 4.93803L0.0257208 5.15154L0 5.36506V18.936L0.0257208 19.1749L0.0734361 19.3558L0.145051 19.5476L0.29013 19.6906L0.460902 19.8335L0.631646 19.9294L0.85201 20H12.0051L12.1998 19.9294L12.3834 19.8335L12.5542 19.6906L12.6772 19.5476L12.7745 19.3558L12.8223 19.1749L12.848 18.936V15.7333H18.9075L19.1498 15.708L19.3206 15.6374L19.5373 15.5415L19.6842 15.4202L19.8292 15.2556L19.9266 15.0873L19.9743 14.8702L20 14.6567V6.92119L19.9504 6.68234L19.8788 6.4435L19.7595 6.15579L19.6622 5.91694L19.5391 5.67809L19.394 5.49715L19.249 5.32887L14.6897 0.763588L14.5189 0.620643L14.3022 0.475883L14.0856 0.35827L13.8432 0.237034L13.5751 0.119421L13.3327 0.0488494L13.0646 0H8.2152L7.99487 0.0253324L7.7782 0.0723733L7.60743 0.19361L7.43666 0.336555L7.29158 0.479507L7.19427 0.671308L7.17225 0.86311L7.14653 1.07663V4.74984L6.75909 4.53633L6.39185 4.41509L6.02462 4.31919L5.68489 4.29748L1.06868 4.29204ZM7.15572 6.65701L10.4774 9.99728H7.15572V6.65701ZM14.2857 2.38125L17.6074 5.70162H14.2857V2.38125ZM12.1043 9.61911L8.56409 6.08161V1.42224H12.8553V6.08342L12.8773 6.30055L12.9526 6.48149L13.0242 6.6733L13.1693 6.84158L13.3401 6.95919L13.5108 7.0551L13.7275 7.12567L13.9221 7.151H18.5751V14.2966H12.8535V11.2205L12.8039 10.9816L12.7323 10.7175L12.635 10.4569L12.5395 10.1927L12.3926 9.97919L12.2475 9.76205L12.1043 9.61911ZM1.41022 18.6049V5.70162H5.70143V10.3592L5.72715 10.5727L5.79876 10.7862L5.89425 10.978L6.01725 11.121L6.18802 11.2639L6.37165 11.3598L6.5663 11.4087L6.78296 11.4304H11.4139V18.6013L1.41022 18.6049Z" fill="#C6C6C6"/>
</svg>
