<svg width="28" height="28" viewBox="0 0 28 28" fill="none" xmlns="http://www.w3.org/2000/svg">
<path d="M13.8927 16.6021L7.87274 14.9125V18.6539C7.88254 20.6329 10.5859 22.0647 13.9333 22.0647C17.2807 22.0647 19.8686 20.4342 19.9946 18.6539V14.8909L13.8927 16.6021Z" fill="#9E9E9E"/>
<path d="M14.0007 8.15L0.000671387 11.9936L5.88557 13.609C5.93054 13.5219 5.99218 13.4451 6.06677 13.3833C6.14136 13.3214 6.22735 13.2757 6.31957 13.2489L13.2909 11.2979C13.3413 11.2838 13.395 11.2904 13.4408 11.3163C13.4865 11.3423 13.5206 11.3855 13.5359 11.4369C13.5427 11.4625 13.5445 11.4893 13.5411 11.5157C13.5378 11.542 13.5293 11.5674 13.5163 11.5904C13.5032 11.6133 13.4858 11.6334 13.4652 11.6493C13.4445 11.6652 13.4209 11.6768 13.3959 11.6832L6.42597 13.6313C6.37279 13.6471 6.32453 13.6769 6.28597 13.7177L14 15.8358L28 11.9922L14.0007 8.15Z" fill="#9E9E9E"/>
<path d="M6.8198 18.9486C6.81999 18.7533 6.75588 18.5637 6.63792 18.4107C6.51995 18.2577 6.35509 18.1503 6.1702 18.106V14.5267L5.7817 14.418V18.106C5.7712 18.106 5.7614 18.106 5.7509 18.1104C5.59188 18.1538 5.44878 18.2444 5.33935 18.3708C5.22993 18.4972 5.15899 18.6539 5.13536 18.8214C5.11173 18.989 5.13643 19.1599 5.20641 19.3131C5.27639 19.4664 5.38856 19.595 5.529 19.6832C5.51266 19.6866 5.4979 19.6956 5.48711 19.7086C5.47632 19.7217 5.47011 19.7381 5.4695 19.7552L5.3827 24.6655C5.3827 24.6979 5.4233 24.7238 5.4737 24.7238L5.8342 24.6899C5.91012 24.6831 5.98647 24.6831 6.0624 24.6899L6.4754 24.7252C6.5258 24.7252 6.5664 24.6993 6.5664 24.6669L6.481 19.7552C6.48038 19.7381 6.47418 19.7217 6.46338 19.7086C6.45259 19.6956 6.43783 19.6866 6.4215 19.6832C6.5432 19.6058 6.64367 19.4977 6.71338 19.3692C6.78308 19.2406 6.81971 19.0959 6.8198 18.9486Z" fill="#9E9E9E"/>
</svg>
