<svg xmlns="http://www.w3.org/2000/svg" viewBox="83.2 -163.5 512 512" width="512" height="512" style="enable-background:new 83.2-163.5 512 512" xml:space="preserve">
	<path d="M188 126.5c26.9 0 48.8 21.9 48.8 48.8 0 27-21.9 48.8-48.8 48.8-27 0-48.8-21.8-48.8-48.8 0-26.9 21.9-48.8 48.8-48.8zm100.8 0c26.9 0 48.8 21.9 48.8 48.8 0 27-21.9 48.8-48.8 48.8-27 0-48.8-21.8-48.8-48.8 0-26.9 21.9-48.8 48.8-48.8zm100.8 0c26.9 0 48.8 21.9 48.8 48.8 0 27-21.8 48.8-48.8 48.8-27 0-48.8-21.8-48.8-48.8 0-26.9 21.9-48.8 48.8-48.8zm100.8 0c27 0 48.8 21.9 48.8 48.8 0 27-21.8 48.8-48.8 48.8-26.9 0-48.8-21.8-48.8-48.8 0-26.9 21.9-48.8 48.8-48.8zM341.2 68.6V-33.6 68.6zm-94.9-54.7H300V-8h-53.7v21.9zm116.5 0h59.1V-8h-59.1v21.9zM216.3 35.8H297v21.9h-80.7V35.8zm124.9 32.8h102.2V-33.6H341.2V68.6zm-10.9 21.9c-3.2 0-5.8-1-7.8-3.1-2.1-2.1-3.1-4.7-3.1-7.8V-44.5c0-3.2 1-5.8 3.1-7.8 2.1-2.1 4.7-3.1 7.8-3.1h124.1c3.2 0 5.8 1 7.8 3.1s3.1 4.7 3.1 7.8V79.6c0 3.2-1 5.8-3.1 7.8s-4.7 3.1-7.8 3.1" fill="#fff"/>
  </svg>
  