<svg xmlns="http://www.w3.org/2000/svg" viewBox="51 -164 512 512" width="512" height="512"><path fill="#FFF" d="M307.3 70.6V-24v94.6zm-87.8-50.7h49.7V-.4h-49.7v20.3zm107.8 0H382V-.4h-54.8l.1 20.3zM191.8 40.2h74.7v20.3h-74.7V40.2zm115.5 30.4H402V-24h-94.6l-.1 94.6zm-10.1 20.3c-2.9 0-5.4-1-7.3-2.9-1.9-1.9-2.9-4.3-2.9-7.3V-34.2c0-2.9 1-5.4 2.9-7.3 1.9-1.9 4.3-2.9 7.3-2.9h114.9c2.9 0 5.4 1 7.3 2.9 1.9 1.9 2.9 4.3 2.9 7.3V80.7c0 2.9-1 5.4-2.9 7.3-1.9 1.9-4.3 2.9-7.3 2.9H297.2zM167 198.3h280c8.7 0 15.8-2.9 21.5-8.8 5.7-5.8 8.5-12.9 8.5-21.2 0-8.7-2.8-15.8-8.5-21.5s-12.8-8.5-21.5-8.5H167c-8.3 0-15.4 2.8-21.2 8.5s-8.8 12.8-8.7 21.5c0 8.3 2.9 15.4 8.8 21.2 5.7 5.9 12.8 8.8 21.1 8.8m0 30c-16.7 0-30.8-5.8-42.5-17.5S107 185 107 168.3s5.8-30.8 17.5-42.5 25.8-17.5 42.5-17.5h280c16.7 0 30.8 5.8 42.5 17.5s17.5 25.8 17.5 42.5-5.8 30.8-17.5 42.5-25.8 17.5-42.5 17.5"/></svg>