<svg xmlns="http://www.w3.org/2000/svg" viewBox="53 -164.4 512 512" width="512" height="512">
	<path fill="#fff" d="M356.1-67v-56.9V-67zm-52.8-30.5h29.9v-12.2h-29.9v12.2zm64.8 0H401v-12.2h-32.9v12.2zm-81.5 12.2h44.9v12.2h-44.9v-12.2zM356.1-67H413v-56.9h-56.9V-67zM350-54.8c-1.8 0-3.2-.6-4.4-1.7-1.2-1.2-1.7-2.6-1.7-4.4V-130c0-1.8.6-3.2 1.7-4.4 1.2-1.2 2.6-1.7 4.4-1.7h69.1c1.8 0 3.2.6 4.4 1.7 1.2 1.2 1.7 2.6 1.7 4.4v69.1c0 1.8-.6 3.2-1.7 4.4-1.2 1.2-2.6 1.7-4.4 1.7H350zM170 52.6h280c8.7 0 15.8-2.9 21.5-8.8 5.7-5.8 8.5-12.9 8.5-21.2 0-8.7-2.8-15.8-8.5-21.5S458.7-7.4 450-7.4H170c-8.3 0-15.4 2.8-21.2 8.5S140 13.9 140 22.6c0 8.3 2.9 15.4 8.8 21.2 5.8 5.9 12.9 8.8 21.2 8.8m0 30c-16.7 0-30.8-5.8-42.5-17.5S110 39.3 110 22.6s5.8-30.8 17.5-42.5 25.8-17.5 42.5-17.5h280c16.7 0 30.8 5.8 42.5 17.5S510 5.9 510 22.6s-5.8 30.8-17.5 42.5-25.8 17.5-42.5 17.5M169.1 214.1c24.9 0 45.1 20.2 45.1 45.1 0 24.9-20.2 45.1-45.1 45.1-24.9 0-45.1-20.2-45.1-45.1 0-24.9 20.2-45.1 45.1-45.1zm93.4 0c24.9 0 45.1 20.2 45.1 45.1 0 24.9-20.2 45.1-45.1 45.1s-45.1-20.2-45.1-45.1c0-24.9 20.2-45.1 45.1-45.1zm93.3 0c24.9 0 45.1 20.2 45.1 45.1 0 24.9-20.2 45.1-45.1 45.1-24.9 0-45.1-20.2-45.1-45.1 0-24.9 20.2-45.1 45.1-45.1zm93.3 0c24.9 0 45.1 20.2 45.1 45.1 0 24.9-20.2 45.1-45.1 45.1-24.9 0-45.1-20.2-45.1-45.1 0-24.9 20.2-45.1 45.1-45.1zM356 168.5v-56.8 56.8zm-52.8-30.4H333v-12.2h-29.8v12.2zm64.7 0h32.9v-12.2h-32.9v12.2zm-81.3 12.1h44.8v12.2h-44.8v-12.2zm69.4 18.3h56.8v-56.8H356v56.8zm-6.1 12.2c-1.8 0-3.2-.6-4.4-1.7-1.1-1.1-1.7-2.6-1.7-4.4v-68.9c0-1.8.6-3.2 1.7-4.4 1.1-1.1 2.6-1.7 4.4-1.7h68.9c1.8 0 3.2.6 4.4 1.7 1.1 1.1 1.7 2.6 1.7 4.4v68.9c0 1.8-.6 3.2-1.7 4.4-1.1 1.1-2.6 1.7-4.4 1.7h-68.9"/>
  </svg>
  