<svg xmlns="http://www.w3.org/2000/svg" viewBox="0 0 512 512" width="512" height="512" xml:space="preserve">
	<path fill="#fff" d="M396 426c8.3 0 15.4-2.9 21.1-8.8 5.9-5.8 8.8-12.9 8.8-21.2.1-8.7-2.9-15.8-8.7-21.5-5.8-5.7-12.9-8.5-21.2-8.5h-14.6c-3.5 0-7-.9-10.1-2.7L140.7 228.7c-3.1-1.8-6.5-2.7-10.1-2.7H116c-8.7 0-15.8 2.8-21.5 8.5S86 247.3 86 256c0 8.3 2.8 15.4 8.5 21.2 5.7 5.9 12.8 8.8 21.5 8.8h14.6c3.5 0 7 .9 10.1 2.7l230.7 134.6c3.1 1.8 6.5 2.7 10.1 2.7H396m-14.6 30c-3.5 0-7-.9-10.1-2.7L140.7 318.7c-3.1-1.8-6.5-2.7-10.1-2.7H116c-16.7 0-30.8-5.8-42.5-17.5S56 272.7 56 256s5.8-30.8 17.5-42.5S99.3 196 116 196h14.6c3.5 0 7 .9 10.1 2.7l230.7 134.6c3.1 1.8 6.5 2.7 10.1 2.7H396c16.7 0 30.8 5.8 42.5 17.5S456 379.3 456 396s-5.8 30.8-17.5 42.5S412.7 456 396 456h-14.6z"/>
  </svg>
  