<svg xmlns="http://www.w3.org/2000/svg" viewBox="0 0 512 512" width="512" height="512" xml:space="preserve">
	<path fill="#fff" d="M116 426h14.6c3.5 0 7-.9 10.1-2.7l230.7-134.6c3.1-1.8 6.5-2.7 10.1-2.7H396c8.7 0 15.8-2.9 21.5-8.8 5.7-5.8 8.5-12.9 8.5-21.2 0-8.7-2.8-15.8-8.5-21.5S404.7 226 396 226h-14.6c-3.5 0-7 .9-10.1 2.7L140.7 363.3c-3.1 1.8-6.5 2.7-10.1 2.7H116c-8.3 0-15.4 2.8-21.2 8.5S86 387.3 86.1 396c0 8.3 2.9 15.4 8.8 21.2 5.7 5.9 12.8 8.8 21.1 8.8m0 30c-16.7 0-30.8-5.8-42.5-17.5S56 412.7 56 396s5.8-30.8 17.5-42.5S99.3 336 116 336h14.6c3.5 0 7-.9 10.1-2.7l230.7-134.6c3.1-1.8 6.5-2.7 10.1-2.7H396c16.7 0 30.8 5.8 42.5 17.5S456 239.3 456 256s-5.8 30.8-17.5 42.5S412.7 316 396 316h-14.6c-3.5 0-7 .9-10.1 2.7L140.7 453.3c-3.1 1.8-6.5 2.7-10.1 2.7H116z" />
</svg>
  