<svg xmlns="http://www.w3.org/2000/svg" viewBox="0 0 512 512" width="512" height="512" xml:space="preserve">
	<path fill="#fff" d="M396 426c8.3 0 15.4-2.9 21.1-8.8 5.9-5.8 8.8-12.9 8.8-21.2.1-8.7-2.9-15.8-8.7-21.5-5.8-5.7-12.9-8.5-21.2-8.5h-7c-5.2 0-10.1-2-13.8-5.6L146.8 141.6c-3.7-3.6-8.7-5.6-13.8-5.6h-17c-8.7 0-15.8 2.8-21.5 8.5S86 157.3 86 166c0 8.3 2.8 15.4 8.5 21.2 5.7 5.9 12.8 8.8 21.5 8.8h17c5.2 0 10.1 2 13.8 5.6l228.4 218.9c3.7 3.6 8.7 5.6 13.8 5.6h7M384 456c-5.2 0-10.1-2-13.8-5.6L141.8 231.6c-3.7-3.6-8.7-5.6-13.8-5.6h-12c-16.7 0-30.8-5.8-42.5-17.5S56 182.7 56 166s5.8-30.8 17.5-42.5S99.3 106 116 106h22c5.2 0 10.1 2 13.8 5.6l228.4 218.9c3.7 3.6 8.7 5.6 13.8 5.6h2c16.7 0 30.8 5.8 42.5 17.5s17.5 25.8 17.5 42.5-5.8 30.8-17.5 42.5C426.8 450.2 412.7 456 396 456h-12z" />
</svg>