<svg xmlns="http://www.w3.org/2000/svg" viewBox="0 0 512 512" width="512" height="512" xml:space="preserve">
	<path fill="#fff" d="M116 426h7c5.2 0 10.1-2 13.8-5.6l228.4-218.9c3.7-3.6 8.7-5.6 13.8-5.6h17c8.7 0 15.8-2.9 21.5-8.8 5.7-5.8 8.5-12.9 8.5-21.2 0-8.7-2.8-15.8-8.5-21.5-5.7-5.7-12.8-8.5-21.5-8.5h-17c-5.2 0-10.1 2-13.8 5.6L136.8 360.4c-3.7 3.6-8.7 5.6-13.8 5.6h-7c-8.3 0-15.4 2.8-21.2 8.5S86 387.3 86.1 396c0 8.3 2.9 15.4 8.8 21.2 5.7 5.9 12.8 8.8 21.1 8.8m0 30c-16.7 0-30.8-5.8-42.5-17.5S56 412.7 56 396s5.8-30.8 17.5-42.5S99.3 336 116 336h2c5.2 0 10.1-2 13.8-5.6l228.4-218.9c3.7-3.6 8.7-5.6 13.8-5.6h22c16.7 0 30.8 5.8 42.5 17.5S456 149.3 456 166s-5.8 30.8-17.5 42.5S412.7 226 396 226h-12c-5.2 0-10.1 2-13.8 5.6L141.8 450.4c-3.7 3.6-8.7 5.6-13.8 5.6h-12z" />
</svg>