<svg width="18" height="18" viewBox="0 0 18 18" fill="none" xmlns="http://www.w3.org/2000/svg">
<circle cx="8" cy="9" r="3" fill="#C6C6C6"/>
<path d="M11.1183 5.33093C11.3291 4.96584 11.8006 4.83657 12.1294 5.10042C12.6113 5.4871 13.019 5.96116 13.3301 6.5C13.769 7.2601 14 8.12232 14 9C14 9.87768 13.769 10.7399 13.3301 11.5C13.019 12.0388 12.6113 12.5129 12.1294 12.8996C11.8006 13.1634 11.3291 13.0342 11.1183 12.6691C10.9076 12.304 11.0403 11.8424 11.3507 11.5571C11.6091 11.3195 11.831 11.0432 12.008 10.7367C12.3129 10.2087 12.4734 9.6097 12.4734 9C12.4734 8.3903 12.3129 7.79134 12.008 7.26332C11.831 6.95681 11.6091 6.68048 11.3507 6.44294C11.0403 6.15763 10.9076 5.69602 11.1183 5.33093Z" fill="#1FA18D"/>
<path d="M12.5786 2.80163C12.8113 2.39855 13.33 2.25699 13.7063 2.5308C14.609 3.18752 15.3669 4.02787 15.9282 5C16.6304 6.21615 17 7.59571 17 9C17 10.4043 16.6303 11.7838 15.9282 13C15.3669 13.9721 14.609 14.8125 13.7063 15.4692C13.33 15.743 12.8113 15.6014 12.5786 15.1984C12.3459 14.7953 12.4883 14.2841 12.8569 13.9998C13.507 13.4983 14.0553 12.873 14.4685 12.1573C15.0228 11.1973 15.3145 10.1084 15.3145 9C15.3145 7.89157 15.0228 6.80267 14.4685 5.84274C14.0553 5.12698 13.507 4.50174 12.8569 4.00022C12.4883 3.71593 12.3459 3.20471 12.5786 2.80163Z" fill="#1FA18D"/>
<path fill-rule="evenodd" clip-rule="evenodd" d="M3 1C1.89543 1 1 1.89543 1 3V15C1 16.1046 1.89543 17 3 17H8V14C5.23858 14 3 11.7614 3 9C3 6.23858 5.23858 4 8 4V1H3Z" fill="#8F8F8F"/>
</svg>
