<svg xmlns="http://www.w3.org/2000/svg" width="30" height="30" viewBox="0 0 30 30">
  <g id="Preferences" transform="translate(2731 -2267)">
    <rect id="BaseIcon" width="30" height="30" transform="translate(-2731 2267)" fill="none"/>
    <path id="Preferences-2" data-name="Preferences" d="M277.591,33.727l.214-.243.246-.309.183-.306.123-.334.12-.306.091-.337.063-.4v-.734l-.063-.337-.091-.365-.12-.306-.123-.337-.183-.306-.246-.274-.214-.274-.306-.246-.246-.214-.334-.214-.277-.123-.334-.12-.337-.095-.366-.06h-.734l-.337.06-.337.095-.334.12-.306.123-.306.214-.277.214-.274.246-.246.274-.243.274-.154.306-.151.337-.123.306-.091.365-.032.337V31.5l.032.4.091.337.123.306.151.334.154.306.243.309.246.243.274.274.277.186.306.214.306.151.334.091.337.091.337.063h.734l.366-.063.337-.091.334-.091.277-.151.334-.214.246-.186Zm8.252-4.128V32.75l-.028.183-.091.151-.095.123-.091.063h-.091l-2.6.4-.154.4-.123.337-.12.274-.154.306.154.183.12.214.186.214.183.246.183.243.214.274.214.306.243.277.123.214.031.151-.031.183-.091.154-.123.151-.123.123-.12.183-.186.214-.183.186-.183.211-.246.214-.211.277-.277.214-.214.211-.183.186-.183.123-.183.12-.091.091-.123.032-.091.032-.186-.032-.183-.123-1.925-1.528-.643.306-.671.246-.06.457-.032.429-.063.4-.06.337-.06.306-.032.306-.031.214-.06.214-.063.183-.12.091-.154.091-.151.031h-3.119l-.214-.031-.151-.123-.091-.091-.063-.183-.429-2.628-.64-.246-.611-.306-1.957,1.528-.186.123-.183.032-.123-.032-.06-.032-.183-.12-.4-.369-.4-.365-.369-.369-.274-.306-.306-.274-.214-.246-.214-.274-.151-.183-.063-.154-.031-.183.031-.151.063-.186.151-.183.154-.183.183-.274.243-.306.246-.306.214-.277.183-.243.154-.154-.214-.4-.154-.337-.123-.334-.091-.369-2.6-.4-.154-.06-.151-.091-.091-.154-.031-.214V29.539l.031-.151.091-.186.12-.12.154-.063,2.628-.4.214-.671.154-.306.183-.337-.306-.429-.369-.488-.4-.52-.457-.551-.091-.151-.031-.183.031-.154.06-.151.123-.154.123-.154.151-.183.154-.151.183-.214.214-.214.214-.246.243-.243.246-.246.246-.214.211-.151.154-.154.154-.123.151-.091.091-.028.091-.032.183.032.186.12,1.925,1.528.643-.274.64-.274.063-.46.06-.425.06-.369.032-.365.063-.306.06-.277.031-.243.06-.214.063-.154.091-.12.151-.095.214-.028h3.119l.151.028.183.123.063.063.06.06.031.154.4,2.628.671.274.611.274,1.988-1.528.06-.06.063-.06.214-.032.183.032.151.12.46.4.365.4.369.334.305.337.274.274.246.246.151.246.154.214.091.12.031.186-.031.183-.091.151-.154.154-.123.243-.214.246-.243.306-.214.306-.214.246-.151.274-.154.183.306.7.274.7,2.568.4.183.06.095.123.091.123Z" transform="translate(-2991.03 2250.98)" fill="#77878a" fill-rule="evenodd"/>
  </g>
</svg>
