<svg viewBox="0 0 512 512" width="512" height="512" xmlns="http://www.w3.org/2000/svg">
    <g>
        <path d="M304 48c0 26.51-21.49 48-48 48s-48-21.49-48-48 21.49-48 48-48 48 21.49 48 48Z" fill="#fff" opacity="1"/>
        <path d="M108.922 60.922c-26.51 0-48 21.49-48 48s21.49 48 48 48 48-21.49 48-48-21.491-48-48-48Z" fill="#fff" opacity="0.857142858" />
        <path d="M96 256c0-26.51-21.49-48-48-48S0 229.49 0 256s21.49 48 48 48 48-21.49 48-48Z" fill="#fff" opacity="0.714285715" />
        <path d="M108.922 355.078c-26.51 0-48 21.49-48 48s21.49 48 48 48 48-21.49 48-48c0-26.509-21.491-48-48-48Z" fill="#fff" opacity="0.571428572" />
        <path d="M256 416c-26.51 0-48 21.49-48 48s21.49 48 48 48 48-21.49 48-48-21.49-48-48-48Z" fill="#fff" opacity="0.428571429" />
        <path d="M403.078 355.078c-26.51 0-48 21.49-48 48s21.49 48 48 48 48-21.49 48-48c0-26.509-21.49-48-48-48Z" fill="#fff" opacity="0.285714286" />
        <path d="M464 208c-26.51 0-48 21.49-48 48s21.49 48 48 48 48-21.49 48-48-21.49-48-48-48Z" fill="#fff" opacity="0.142857143" />
        <animateTransform attributeName="transform" type="rotate" from="0 256 256" to="360 256 256" dur="5s" repeatCount="indefinite" />
    </g>
</svg>
  