<svg id="assetBrowser_dark" xmlns="http://www.w3.org/2000/svg" width="40" height="40" viewBox="0 0 40 40">
  <rect id="BaseIcon" width="40" height="40" fill="none"/>
  <path id="Sample_Browser" d="M49.783,122.793v-4.112l-.035-.457-.07-.363-.133-.367-.207-.273-.2-.273-.27-.184-.274-.137-.305-.047h-5l-.34.047-.239.137-.309.184-.2.273-.2.273-.137.367-.067.363-.035.457v4.112l.035.367.067.41.137.32.2.32.2.231.309.226.239.094.34.042h5l.305-.042.274-.094.27-.226.2-.231.207-.32.133-.32.07-.41Zm0,10.922V129.6l-.035-.41-.07-.367-.133-.367-.207-.273-.2-.273-.27-.231-.274-.089-.305-.047h-5l-.34.047-.239.089-.309.231-.2.273-.2.273-.137.367-.067.367-.035.41v4.111l.035.41.067.367.137.367.2.316.2.231.309.184.239.137.34.047h5l.305-.047.274-.137.27-.184.2-.231.207-.316.133-.367.07-.367Zm10.043-10.922v-4.112l-.035-.457-.07-.363-.133-.367-.207-.273-.2-.273-.27-.184-.274-.137-.34-.047H53.324l-.34.047-.239.137-.309.184-.2.273-.2.273-.137.367-.067.363-.035.457v4.112l.035.367.067.41.137.32.2.32.2.231.309.226.239.094.34.042h4.969l.34-.042.274-.094.27-.226.2-.231.207-.32.133-.32.07-.41ZM49.783,144.679v-4.112l-.035-.457-.07-.363-.133-.367-.207-.273-.2-.273-.27-.184-.274-.137-.305-.047h-5l-.34.047-.239.137-.309.184-.2.273-.2.273-.137.367-.067.363-.035.457v4.112l.035.367.067.41.137.32.2.32.2.231.309.226.239.094.34.042h5l.305-.042.274-.094.27-.226.2-.231.207-.32.133-.32.07-.41Zm10.043-10.964V129.6l-.035-.41-.07-.367-.133-.367-.207-.273-.2-.273-.27-.231-.274-.09-.34-.047H53.324l-.34.047-.239.09-.309.231-.2.273-.2.273-.137.367-.067.367-.035.41v4.112l.035.41.067.367.137.367.2.316.2.231.309.184.239.137.34.047h4.969l.34-.047.274-.137.27-.184.2-.231.207-.316.133-.367.07-.367Zm10.008-10.922v-4.112l-.035-.457-.035-.363-.133-.367-.207-.273-.239-.273-.239-.184-.305-.137-.305-.047h-5l-.309.047-.27.137-.274.184-.239.273-.168.273-.137.367-.067.363-.035.457v4.112l.035.367.067.41.137.32.168.32.239.231.274.226.27.094.309.042h5l.305-.042.305-.094.239-.226.239-.231.207-.32.133-.32.035-.41ZM59.827,144.679v-4.112l-.035-.457-.07-.363-.133-.367-.207-.273-.2-.273-.27-.184-.274-.137-.34-.047H53.324l-.34.047-.239.137-.309.184-.2.273-.2.273-.137.367-.067.363-.035.457v4.112l.035.367.067.41.137.32.2.32.2.231.309.226.239.094.34.042h4.969l.34-.042.274-.094.27-.226.2-.231.207-.32.133-.32.07-.41Zm10.008-10.964V129.6l-.035-.41-.035-.367-.133-.367-.207-.273-.239-.273-.239-.231-.305-.089-.305-.047h-5l-.309.047-.27.089-.274.231-.239.273-.168.273-.137.367-.067.367-.035.41v4.112l.035.41.067.367.137.367.168.316.239.231.274.184.27.137.309.047h5l.305-.047.305-.137.239-.184.239-.231.207-.316.133-.367.035-.367Zm0,10.964v-4.112l-.035-.457-.035-.363-.133-.367-.207-.273-.239-.273-.239-.184-.305-.137-.305-.047h-5l-.309.047-.27.137-.274.184-.239.273-.168.273-.137.367-.067.363-.035.457v4.112l.035.367.067.41.137.32.168.32.239.231.274.226.27.094.309.042h5l.305-.042.305-.094.239-.226.239-.231.207-.32.133-.32.035-.41Z" transform="translate(-35.418 -110.692)" fill="#77878a" fill-rule="evenodd"/>
</svg>
