<svg width="14" height="14" viewBox="0 0 14 14" fill="none" xmlns="http://www.w3.org/2000/svg">
<g clip-path="url(#clip0_2177_35467)">
<path fill-rule="evenodd" clip-rule="evenodd" d="M12.0087 10.2123V10.9873L11.9717 11.2363L11.9017 11.4483L11.8307 11.6623L11.7247 11.8743L11.6167 12.0743L11.4577 12.2523L11.3147 12.4523L11.1207 12.6113L10.9427 12.7543L10.7427 12.8603L10.5307 12.9663L10.3307 13.0563L10.1167 13.0913L9.88568 13.1263L9.63867 13.1443H2.83865L2.58966 13.1263L2.35867 13.0913L2.14667 13.0563L1.93268 12.9663L1.72067 12.8603L1.52066 12.7543L1.34268 12.6113L1.16467 12.4523L1.00568 12.2523L0.862671 12.0743L0.756683 11.8743L0.650665 11.6623L0.560669 11.4483L0.50766 11.2363L0.472656 10.9873V3.5993L0.50766 3.35231L0.560669 3.13831L0.650665 2.9263L0.756683 2.7263L0.862671 2.51431L1.00568 2.3363L1.16467 2.13631L1.34268 1.97731L1.52066 1.8163L1.72067 1.71031L1.93268 1.60431L2.14667 1.53331L2.35867 1.4803L2.58966 1.44531H5.91666L6.02267 1.4613L6.05966 1.47931L6.09467 1.51431L6.16568 1.60431L6.18167 1.6573V1.71031L6.16568 1.8163L6.12866 1.86931L6.05865 1.9223L5.96866 1.9593L5.66867 2.08331L5.38467 2.1893L5.11768 2.33231L4.88666 2.4563L4.79868 2.4913H2.84167L2.69867 2.50931L2.57367 2.5253L2.44968 2.5433L2.32666 2.59631L2.23666 2.64931L2.11267 2.72031L2.00668 2.79131L1.91666 2.8793L1.82867 2.9873L1.73868 3.09331L1.66867 3.19931L1.63168 3.3233L1.57867 3.42931L1.56067 3.57231L1.54468 3.6783L1.52667 3.8213V10.7283L1.54468 10.8713L1.56067 10.9953L1.57867 11.1193L1.63168 11.2433L1.66867 11.3493L1.73868 11.4733L1.82867 11.5613L1.91666 11.6693L2.00668 11.7753L2.11267 11.8463L2.23666 11.8993L2.32666 11.9693L2.44968 12.0063L2.57367 12.0413L2.69867 12.0593H9.78467L9.89066 12.0413L10.0337 12.0063L10.1587 11.9693L10.2467 11.8993L10.3717 11.8463L10.4777 11.7753L10.5677 11.6693L10.6557 11.5613L10.7457 11.4733L10.7987 11.3493L10.8517 11.2433L10.9047 11.1193L10.9227 10.9953L10.9407 10.8713L10.9567 10.7283V10.5043L10.9937 10.4343L11.0467 10.3973L11.0997 10.3443L11.2057 10.2733L11.3297 10.2023L11.4197 10.1323L11.5437 10.0423L11.6137 9.97131L11.6847 9.95531L11.7377 9.9373L11.8277 9.97231L11.8987 10.0093L11.9687 10.0623L12.0057 10.1333L12.0087 10.2123Z" fill="#9E9E9E"/>
<path fill-rule="evenodd" clip-rule="evenodd" d="M13.8376 5.53L9.85062 9.567L9.78262 9.63499L9.69962 9.685L9.59964 9.702L9.49963 9.718L9.41562 9.702L9.29764 9.66701L9.17963 9.58301L9.07962 9.498L9.01163 9.364L8.99463 9.211V6.692H8.59464L8.29462 6.709H7.99463L7.72464 6.742L7.45361 6.759L7.20163 6.79201L6.93164 6.827L6.71262 6.895L6.49164 6.94501L6.29163 7.02901L6.09161 7.097L5.92264 7.18001L5.75363 7.28L5.58463 7.36301L5.44864 7.481L5.31262 7.599L5.21262 7.717L5.09464 7.868L4.99463 8.021L4.91162 8.19L4.82663 8.35901L4.74362 8.543L4.69162 8.76201L4.62561 8.96201L4.60861 9.19901L4.57562 9.43401L4.55862 9.67101L4.54163 9.942V10.514L4.57663 10.814L4.59262 11.114L4.62762 11.434V11.534L4.61063 11.602L4.56064 11.67L4.47562 11.703L4.40762 11.72H4.32462L4.27463 11.703L4.22464 11.67L4.17462 11.635L4.02164 11.383L3.97162 11.298L3.90363 11.18L3.80362 11.029L3.71964 10.829L3.50061 10.441L3.33163 10.051L3.24661 9.867L3.17862 9.64799L3.11063 9.394L3.02661 9.157L2.95862 8.905L2.92563 8.651L2.89062 8.414V7.82401L2.90762 7.46899L2.95862 7.132L3.02661 6.761L3.07663 6.575L3.12662 6.40601L3.24463 6.069L3.31262 5.90001L3.41263 5.74901L3.61264 5.427L3.72961 5.276L3.84763 5.10699L4.00061 4.97101L4.13461 4.83701L4.30362 4.71899L4.47263 4.58301L4.65863 4.465L4.87762 4.36501L5.09662 4.24699L5.33362 4.16299L5.57062 4.063L5.84064 3.98L6.11063 3.895L6.41061 3.845L6.73062 3.795L7.08563 3.745L7.44061 3.69501L7.81161 3.67801L8.19962 3.662L8.60461 3.645H9.00464V1.145L9.02164 0.994003L9.08963 0.860001L9.18964 0.759995L9.30762 0.675995L9.42563 0.641006L9.50961 0.625L9.59464 0.641006L9.69461 0.675995L9.77963 0.725998L9.86362 0.794006L13.8506 4.814L13.9186 4.899L13.9686 4.98199L13.9856 5.067L14.0026 5.16701L13.9856 5.267L13.9686 5.35201L13.9186 5.436L13.8376 5.53Z" fill="#9E9E9E"/>
</g>
<defs>
<clipPath id="clip0_2177_35467">
<rect width="13.529" height="12.518" fill="white" transform="translate(0.472656 0.625)"/>
</clipPath>
</defs>
</svg>
